<svg id="Capa_1" data-name="Capa 1" xmlns="http://www.w3.org/2000/svg" width="2008.48" height="1278.5" viewBox="0 0 2008.48 1278.5">
  <defs>
    <clipPath id="circle-clip">
      <circle cx="1004.24" cy="639.25" r="639.25"/>
    </clipPath>
  </defs>
  <g>
    <rect width="2008.48" height="1278.5" style="fill: #095aa5"/>
    <g>
      <path d="M2175-623.26l-52.77-.83L2121-620c-59.51,137.67-196.52,234.89-356,234.89S1468.11-481.93,1408.85-620l-1.17-4.08h-57l2.33,7.4c62.92,166.39,223.74,284.75,412.26,284.75s349.34-118.94,412.52-284.83l2.33-6.49Zm-.25,5h-1.41l-4.33-1.66h-.09l5.83,1.66Z" transform="translate(-763.72 1414)" style="fill: #fff"/>
      <path d="M2180.78-932.4A439.88,439.88,0,0,0,2125-1036.19a71.39,71.39,0,0,0,8.91-34.46,72.25,72.25,0,0,0-72.25-72.25h0a71.8,71.8,0,0,0-35.3,9.24,439,439,0,0,0-258.11-83.9c-188,0-348.84,119.27-412,285.08l-2.24,8.74h56.6l1.16-5.41c58.93-138.42,196.19-235.31,356.25-235.31a385.87,385.87,0,0,1,224.9,72.08,71.59,71.59,0,0,0,45.87,90.23,72.7,72.7,0,0,0,22.39,3.5,73,73,0,0,0,21.89-3.58A389.43,389.43,0,0,1,2124.68-929l1.16,1.92H2183Z" transform="translate(-763.72 1414)" style="fill: #fff"/>
      <path d="M2024.37-1071.72a37,37,0,0,1,36.85-37.07l1.61,0a37.13,37.13,0,0,1,35.54,35.46,37,37,0,0,1-35.34,38.5c-.54,0-1.08,0-1.62,0h0a37,37,0,0,1-37-36.88v-.26" transform="translate(-763.72 1414)" style="fill: #ff690a"/>
      <path d="M2025-1072.73h.67c0-28.22,32.54-48.86,62.17-26.47l.34.25c22.39,29.63,1.74,62.17-26.47,62.17a35.66,35.66,0,0,1-25.47-10.57,35.83,35.83,0,0,1-10.57-25.38h-1.5c0,29.38,33.87,50.94,64.75,27.55l.34-.25c23.3-30.88,1.83-64.76-27.55-64.76h-.09a37.54,37.54,0,0,0-37.45,37.46Z" transform="translate(-763.72 1414)" style="fill: #ff690a"/>
      <path d="M1065.4-739h.07a48.93,48.93,0,0,1-17.58,12.08,56.14,56.14,0,0,1-20.92,4c-15.16,0-27.66-5.25-38.58-16.08a53.71,53.71,0,0,1-12-18,56.24,56.24,0,0,1-4.08-20.58,55.56,55.56,0,0,1,4.08-20.41,50,50,0,0,1,11.92-17.59h.19a54,54,0,0,1,76.44-.44l.45.44h0l17.1,16.44,32.88-33.54-16.52-16.52a94.89,94.89,0,0,0-34-22.25h0a98.44,98.44,0,0,0-37.86-7.64,101.87,101.87,0,0,0-38.44,7.72h0A97.74,97.74,0,0,0,955-849.16h0a97,97,0,0,0-22.17,33.54,104.37,104.37,0,0,0,0,76.3A98.11,98.11,0,0,0,955-705.69a102.93,102.93,0,0,0,33.46,22.5H989a105.89,105.89,0,0,0,38.17,7.27,124.09,124.09,0,0,0,37.76-6.44h0c12.72-5.95,24.2-13.55,33.79-23.3l16.44-16.44-32.8-33.3Zm-108-107.61h0l-2.25-2.24Z" transform="translate(-763.72 1414)" style="fill: #fff"/>
      <path d="M1281-752.34h0l-13.4,13.4c-8.74,8.65-18.56,13.81-30.13,15.73a63.24,63.24,0,0,1-7.9.5,50.92,50.92,0,0,1-18.4-3.25L1317.7-832.5l-16.56-16.65a98.13,98.13,0,0,0-34.13-22.3h0a98.84,98.84,0,0,0-76.49.08h0a100.53,100.53,0,0,0-55.85,55.85,103,103,0,0,0-7.25,38,106.63,106.63,0,0,0,7.16,38.45v.17h0a98.8,98.8,0,0,0,22.23,33.63,101.63,101.63,0,0,0,143.72.44l0,0,.49-.41,16.65-16.65-33.54-33.63Zm-106.87-24.91c.09-15.15,5.33-27.63,16.07-38.45,8.74-8.66,18.39-13.65,29.63-15.23a54.1,54.1,0,0,1,8.24-.59,51.78,51.78,0,0,1,18.48,3.25c-3.41,3.41-7.66,7.49-12.65,12.24h0l-23,23-22.55,22.47-11,11.08a52.32,52.32,0,0,1-3.16-17.82ZM1187-819l2.66,2.58Zm96.55,69.83h0l-2.83-2.83,2.83,2.75Z" transform="translate(-763.72 1414)" style="fill: #fff"/>
      <path d="M1705.5-755.19l-17.15,16.56h0a48.84,48.84,0,0,1-17.56,12,56.18,56.18,0,0,1-20.89,4c-15.15-.09-27.72-5.25-38.54-16.07a52.88,52.88,0,0,1-12.07-18.06,54.43,54.43,0,0,1,0-41,48.58,48.58,0,0,1,12-17.48h0a54.42,54.42,0,0,1,59-12,53.78,53.78,0,0,1,18.06,12l17.07,16.56,33.13-33.63L1722-848.83a97.15,97.15,0,0,0-34.12-22.31h0a99.57,99.57,0,0,0-38-7.65,101.34,101.34,0,0,0-38.46,7.74h0a97.86,97.86,0,0,0-33.63,22.22h0a97.29,97.29,0,0,0-22.22,33.63,104.67,104.67,0,0,0,0,76.49A98.42,98.42,0,0,0,1577.73-705a103.33,103.33,0,0,0,33.55,22.64h.08a106.72,106.72,0,0,0,38.46,7.24,104.75,104.75,0,0,0,38.12-7.24h0A101.08,101.08,0,0,0,1722-705l16.57-16.56ZM1581-846h0l-2.25-2.17Z" transform="translate(-763.72 1414)" style="fill: #fff"/>
      <path d="M1955.67-777.77c.08-13.59-7.59-39.52-7.59-39.52h0a94.57,94.57,0,0,0-21.84-32.17h0a98.49,98.49,0,0,0-32.76-21.84h0a96.2,96.2,0,0,0-39.6-8.17,98.11,98.11,0,0,0-39.6,8.17h-.21a99.88,99.88,0,0,0-32.92,21.92,105.47,105.47,0,0,0-22,32.5h0c-4.87,11.43-7.39,23.69-7.73,38h.78v3.33h.09c.33,14.06,2.74,26.05,7.4,37.37v0s12.42,23.18,21.51,32.6h.08a98.91,98.91,0,0,0,32.6,21.92h0a95.75,95.75,0,0,0,39.51,8.09,93.62,93.62,0,0,0,39.68-8.09h0a99.64,99.64,0,0,0,54.44-54.52h0A96.63,96.63,0,0,0,1955.67-777.77Zm-52.82,20.42h0a41.06,41.06,0,0,1-11,17.27,54.86,54.86,0,0,1-17.19,11.33,59,59,0,0,1-42.52,0,51.86,51.86,0,0,1-29.15-28.6,52.16,52.16,0,0,1-4-19.4c0-5.54,1.33-15.56,4-21.84a53.58,53.58,0,0,1,11.63-16.86h0a51.65,51.65,0,0,1,17.52-11.41v-.33h.08a58.28,58.28,0,0,1,42.27,0h.17a53.8,53.8,0,0,1,17,11.65h.17a51.82,51.82,0,0,1,11.87,16.87v.17h0a51.08,51.08,0,0,1,4.07,20.21,50.21,50.21,0,0,1-4.32,20.86Z" transform="translate(-763.72 1414)" style="fill: #fff"/>
      <path d="M2172.91-737a59.68,59.68,0,0,0-5.08-24.09h0c-.08-.08.25-.16.25-.16h0A62.33,62.33,0,0,0,2154.33-781h0a56.69,56.69,0,0,0-19.84-12.84h0l-.17-.16h0c-7.58-3.42-24.09-5.67-24.09-5.67h-76.61a14.14,14.14,0,0,1-10.49-4.16,15.91,15.91,0,0,1-4.33-11A14.58,14.58,0,0,1,2033-829.69h122v-47.44H2034.78s-16.81,1.44-24.55,4.84h0a59.76,59.76,0,0,0-19.4,13,78.12,78.12,0,0,0-13.9,20v.33h0a64.05,64.05,0,0,0-4.49,24c0,8.38,4.49,24.47,4.49,24.47v-.09h.08a67.55,67.55,0,0,0,13.43,19.64h0a62.09,62.09,0,0,0,19,13.48v.17h.08c7.83,2.91,24.47,5,24.47,5h75.17a15.81,15.81,0,0,1,4.82.75l1.5,1.17a18.88,18.88,0,0,1,0,26.13l-1.5,1.25a18.69,18.69,0,0,1-4.82.67H1990.25v47.44h119.94c8.27,0,24.14-4.16,24.14-4.16h.07a68.1,68.1,0,0,0,19.93-13.59,60.71,60.71,0,0,0,13.41-19.92h0A60.91,60.91,0,0,0,2172.91-737Z" transform="translate(-763.72 1414)" style="fill: #fff"/>
      <path d="M2390.78-876.3H2344v99.5a46.39,46.39,0,0,1-4.08,21.19h-.08V-756a51.39,51.39,0,0,1-11.66,17.64,56.42,56.42,0,0,1-59.93,11.74,66.14,66.14,0,0,1-17.31-11.74A62.26,62.26,0,0,1,2239.29-756a48,48,0,0,1-3.5-21.39V-880.46h-46.61v102.05s2.08,27,7.49,39.45h0A103.41,103.41,0,0,0,2218-706.5h0a93.43,93.43,0,0,0,32.29,21.64h.09a92.78,92.78,0,0,0,39.2,8.33c13.4.08,39.21-7.49,39.21-7.49h-.25a107,107,0,0,0,32.37-22.14,101.28,101.28,0,0,0,21.65-32.63h0a97.73,97.73,0,0,0,8.07-39.46Z" transform="translate(-763.72 1414)" style="fill: #fff"/>
      <path d="M2610.35-957.87h-47.44v77.41H2509a96.07,96.07,0,0,0-39.15,8.06h0a99.42,99.42,0,0,0-32.5,21.62h0a100.75,100.75,0,0,0-22,31.92h-.64c-.66,1.58-1.25,3.16-1.83,4.75h0a105.86,105.86,0,0,0-4.75,49.75,98.87,98.87,0,0,0,7.17,26.25l-2.84,1.17,2.84-1.17a94.33,94.33,0,0,0,48,49.42c1.42.67,2.83,1.5,4.33,2.17l-1.33,3.33,1.42-3.33,1.66.83h0a104.92,104.92,0,0,0,74,1.83l.33.59-.25-.59,4.74-1.83h.09a100.53,100.53,0,0,0,32.13-22h0a100,100,0,0,0,21.8-32.55h0a96.29,96.29,0,0,0,8.16-39.22ZM2564.66-778a57,57,0,0,1-4.25,21.7v.65H2560a53,53,0,0,1-11.84,17.88,59.61,59.61,0,0,1-17.55,12.09h.19a60.14,60.14,0,0,1-22,4v-.42c-7.47.08-22.16-3.57-22.16-3.57h-.17a78.38,78.38,0,0,1-17.92-12.49h.63a71.39,71.39,0,0,1-12-17.71h0a63.29,63.29,0,0,1-3.66-21.29,47,47,0,0,1,4.49-21h0a47,47,0,0,1,11.24-17.29A51.36,51.36,0,0,1,2486.91-827h0c6.75-3,21.48-4.32,21.48-4.32h56.18Z" transform="translate(-763.72 1414)" style="fill: #fff"/>
      <path d="M1526.37-817h0a94.6,94.6,0,0,0-21.57-32.13h0A100.45,100.45,0,0,0,1472.41-871h0a94.53,94.53,0,0,0-39.14-8.16,97.69,97.69,0,0,0-39.22,8.16h0a100.12,100.12,0,0,0-32.3,21.81A103.7,103.7,0,0,0,1340.18-817h0c-5.41,11.65-8.08,24.3-8.33,39.12v103H1381V-776a55.29,55.29,0,0,1,4-21.11,58.72,58.72,0,0,1,11.65-17.39,53,53,0,0,1,17.31-11.83h.09a53.16,53.16,0,0,1,42.47,0h.09a48,48,0,0,1,17.14,11.66h-1.3a47.16,47.16,0,0,1,11,17v.17h0a50.22,50.22,0,0,1,4.16,20.61v102H1535V-777.5S1531.78-804.88,1526.37-817Z" transform="translate(-763.72 1414)" style="fill: #fff"/>
    </g>
  </g>
</svg>
