<?xml version="1.0" encoding="UTF-8"?>
<svg version="1.1" xmlns="http://www.w3.org/2000/svg" width="800" height="800">
<path d="M0 0 C264 0 528 0 800 0 C800 264 800 528 800 800 C536 800 272 800 0 800 C0 536 0 272 0 0 Z " fill="#FEFEFE" transform="translate(0,0)"/>
<path d="M0 0 C7.99497685 4.07017003 12.15537048 10.1373235 15.0859375 18.62890625 C16.90649778 29.61295327 15.73514379 39.86982136 10.4375 49.75 C8.0625 52.75 8.0625 52.75 5.4375 54.75 C4.87804687 55.19859375 4.31859375 55.6471875 3.7421875 56.109375 C-2.23541928 60.71549624 -7.93560374 61.19284622 -15.40234375 61.18359375 C-20.73989753 60.45124706 -24.20553566 57.82550424 -28.5625 54.75 C-28.5625 60.36 -28.5625 65.97 -28.5625 71.75 C-25.9225 71.75 -23.2825 71.75 -20.5625 71.75 C-20.5625 75.38 -20.5625 79.01 -20.5625 82.75 C-31.1225 82.75 -41.6825 82.75 -52.5625 82.75 C-52.5625 79.12 -52.5625 75.49 -52.5625 71.75 C-49.5925 71.75 -46.6225 71.75 -43.5625 71.75 C-43.8925 51.95 -44.2225 32.15 -44.5625 11.75 C-47.5325 11.42 -50.5025 11.09 -53.5625 10.75 C-53.5625 7.12 -53.5625 3.49 -53.5625 -0.25 C-50.29117393 -0.33081043 -47.02183579 -0.39040709 -43.75 -0.4375 C-42.82123047 -0.46263672 -41.89246094 -0.48777344 -40.93554688 -0.51367188 C-39.5965332 -0.52817383 -39.5965332 -0.52817383 -38.23046875 -0.54296875 C-36.99719849 -0.56653442 -36.99719849 -0.56653442 -35.73901367 -0.59057617 C-33.02926893 -0.16656115 -32.2059649 0.59123544 -30.5625 2.75 C-30.2325 3.74 -29.9025 4.73 -29.5625 5.75 C-29.01980469 5.32847656 -28.47710937 4.90695312 -27.91796875 4.47265625 C-27.20253906 3.92480469 -26.48710937 3.37695312 -25.75 2.8125 C-25.04230469 2.26722656 -24.33460938 1.72195313 -23.60546875 1.16015625 C-17.4262423 -3.10504594 -6.87021417 -2.42168469 0 0 Z " fill="#193D68" transform="translate(337.5625,371.25)"/>
<path d="M0 0 C0.69544922 -0.020625 1.39089844 -0.04125 2.10742188 -0.0625 C7.23219885 -0.10078031 10.72509553 0.96531625 15.3125 3.25 C15.3125 3.91 15.3125 4.57 15.3125 5.25 C15.89 5.476875 16.4675 5.70375 17.0625 5.9375 C22.46029959 9.08621643 24.6103795 14.32153407 26.546875 20.0234375 C28.89279661 29.90982143 28.26100644 40.28956884 23.3125 49.25 C18.70309483 56.14286625 13.49929915 60.48560363 5.3125 62.25 C-3.93684739 63.25434833 -9.2358963 61.83870277 -16.6875 56.25 C-16.6875 61.86 -16.6875 67.47 -16.6875 73.25 C-14.0475 73.25 -11.4075 73.25 -8.6875 73.25 C-8.6875 76.88 -8.6875 80.51 -8.6875 84.25 C-19.2475 84.25 -29.8075 84.25 -40.6875 84.25 C-40.6875 80.62 -40.6875 76.99 -40.6875 73.25 C-37.7175 73.25 -34.7475 73.25 -31.6875 73.25 C-32.0175 53.45 -32.3475 33.65 -32.6875 13.25 C-35.6575 12.92 -38.6275 12.59 -41.6875 12.25 C-41.6875 8.62 -41.6875 4.99 -41.6875 1.25 C-38.60363896 1.16900365 -35.52190789 1.10950476 -32.4375 1.0625 C-31.56480469 1.03736328 -30.69210937 1.01222656 -29.79296875 0.98632812 C-23.33680246 0.91240256 -23.33680246 0.91240256 -20.140625 2.57421875 C-18.6875 4.25 -18.6875 4.25 -17.6875 7.25 C-17.13320313 6.82847656 -16.57890625 6.40695312 -16.0078125 5.97265625 C-14.92113281 5.15087891 -14.92113281 5.15087891 -13.8125 4.3125 C-13.09320312 3.76722656 -12.37390625 3.22195313 -11.6328125 2.66015625 C-7.83793323 -0.09075021 -4.54535383 0.03278885 0 0 Z " fill="#10631C" transform="translate(672.6875,369.75)"/>
<path d="M0 0 C3.58282854 2.91104819 5.01547875 5.30969581 7 9.4375 C7.43570313 8.89480469 7.87140625 8.35210937 8.3203125 7.79296875 C8.91585937 7.07753906 9.51140625 6.36210937 10.125 5.625 C10.70507812 4.91730469 11.28515625 4.20960938 11.8828125 3.48046875 C16.45223202 -0.92876817 20.76339736 -1.97853028 27 -1.9375 C28.7634375 -1.94910156 28.7634375 -1.94910156 30.5625 -1.9609375 C35.55620937 -1.38212119 38.84457764 0.18579244 42.25 3.875 C45.80132348 9.07515223 46.27544873 12.84809347 46.1953125 19.140625 C46.1924826 19.97841492 46.18965271 20.81620483 46.18673706 21.67938232 C46.17556349 24.34890163 46.15046421 27.0180825 46.125 29.6875 C46.11496654 31.49999515 46.10584133 33.31249556 46.09765625 35.125 C46.0756334 39.56262993 46.04112304 44.00000763 46 48.4375 C48.97 48.4375 51.94 48.4375 55 48.4375 C55 52.0675 55 55.6975 55 59.4375 C47.41 59.4375 39.82 59.4375 32 59.4375 C31.95101562 56.61960937 31.90203125 53.80171875 31.8515625 50.8984375 C31.79749461 48.1579881 31.74020996 45.41762342 31.68261719 42.67724609 C31.64442308 40.77822222 31.60955375 38.87912836 31.578125 36.97998047 C31.53226613 34.24421237 31.47430663 31.50892208 31.4140625 28.7734375 C31.40251129 27.92945404 31.39096008 27.08547058 31.37905884 26.21591187 C31.2654599 21.63999942 30.9777042 17.65809867 29 13.4375 C24.18643082 11.83297694 20.5031813 11.78906885 15.8125 13.8125 C10.58413181 18.69231031 8.86429016 25.20925721 8.390625 32.2265625 C8.32536384 34.171345 8.27857455 36.11683264 8.25 38.0625 C8.20552734 39.56876953 8.20552734 39.56876953 8.16015625 41.10546875 C8.09033922 43.54906497 8.04280593 45.9932814 8 48.4375 C10.97 48.4375 13.94 48.4375 17 48.4375 C17 52.0675 17 55.6975 17 59.4375 C9.08 59.4375 1.16 59.4375 -7 59.4375 C-7.02578125 56.29605469 -7.0515625 53.15460938 -7.078125 49.91796875 C-7.11652359 46.87970975 -7.1616909 43.84162172 -7.20751953 40.8034668 C-7.23576695 38.68994288 -7.25696264 36.57631257 -7.27099609 34.46264648 C-7.29237334 31.426365 -7.33899669 28.39136771 -7.390625 25.35546875 C-7.39185364 24.40850632 -7.39308228 23.46154388 -7.39434814 22.48588562 C-7.35798315 17.44346273 -7.35798315 17.44346273 -9.90380859 13.33764648 C-13.74602261 11.687723 -17.09368225 12.09703048 -21 13.4375 C-25.70348599 17.15653543 -28.60809705 22.14473503 -29.31884766 28.11645508 C-29.35026855 29.05384521 -29.38168945 29.99123535 -29.4140625 30.95703125 C-29.45273437 31.97861328 -29.49140625 33.00019531 -29.53125 34.05273438 C-29.57765625 35.63538086 -29.57765625 35.63538086 -29.625 37.25 C-29.66367187 38.32443359 -29.70234375 39.39886719 -29.7421875 40.50585938 C-29.83618613 43.14957088 -29.92184573 45.7932805 -30 48.4375 C-27.03 48.4375 -24.06 48.4375 -21 48.4375 C-21 52.0675 -21 55.6975 -21 59.4375 C-31.89 59.4375 -42.78 59.4375 -54 59.4375 C-54 55.8075 -54 52.1775 -54 48.4375 C-51.03 48.4375 -48.06 48.4375 -45 48.4375 C-45.33 36.2275 -45.66 24.0175 -46 11.4375 C-48.64 11.1075 -51.28 10.7775 -54 10.4375 C-54 6.8075 -54 3.1775 -54 -0.5625 C-50.72867393 -0.64331043 -47.45933579 -0.70290709 -44.1875 -0.75 C-43.25873047 -0.77513672 -42.32996094 -0.80027344 -41.37304688 -0.82617188 C-40.0340332 -0.84067383 -40.0340332 -0.84067383 -38.66796875 -0.85546875 C-37.43469849 -0.87903442 -37.43469849 -0.87903442 -36.17651367 -0.90307617 C-33.45294465 -0.47689796 -32.61348724 0.2296198 -31 2.4375 C-30.3125 6.125 -30.3125 6.125 -30 9.4375 C-29.57589844 8.89480469 -29.15179687 8.35210937 -28.71484375 7.79296875 C-21.62628734 -0.85351214 -10.84765071 -5.42382535 0 0 Z " fill="#165D2F" transform="translate(570,371.5625)"/>
<path d="M0 0 C5.39848061 4.68488834 8.6951993 10.62469583 12.375 16.6875 C16.54134721 23.50862334 20.77353883 30.20863133 25.40576172 36.72387695 C27.69215345 39.9882001 29.79220775 43.35351395 31.875 46.75 C34.42682299 50.88147575 36.9870399 55.00319061 39.640625 59.0703125 C40.05844238 59.71129883 40.47625977 60.35228516 40.90673828 61.01269531 C41.70347425 62.23063158 42.50379094 63.44623488 43.30810547 64.65917969 C46 68.78079921 46 68.78079921 46 71 C35.44 71 24.88 71 14 71 C8.41836735 60.95306122 8.41836735 60.95306122 6.9375 56.9375 C5.27452394 52.45436177 3.17583353 48.25094011 1 44 C-0.58475045 46.99925342 -2.16753521 49.99954008 -3.75 53 C-4.41515625 54.25876953 -4.41515625 54.25876953 -5.09375 55.54296875 C-5.53203125 56.37441406 -5.9703125 57.20585937 -6.421875 58.0625 C-6.81987305 58.81660156 -7.21787109 59.57070313 -7.62792969 60.34765625 C-9.45512118 63.87979297 -11.22153895 67.4430779 -13 71 C-23.56 71 -34.12 71 -45 71 C-40.49659864 61.99319728 -40.49659864 61.99319728 -38.703125 59.140625 C-38.30633545 58.50672852 -37.9095459 57.87283203 -37.50073242 57.21972656 C-37.08799072 56.5697168 -36.67524902 55.91970703 -36.25 55.25 C-35.80954346 54.55100586 -35.36908691 53.85201172 -34.9152832 53.13183594 C-31.77188215 48.16383993 -28.54031926 43.26005939 -25.2578125 38.3828125 C-22.31417593 33.99317903 -19.44143521 29.5572135 -16.5625 25.125 C-16.00554443 24.26769287 -15.44858887 23.41038574 -14.87475586 22.52709961 C-10.76052477 16.18681112 -6.6743703 9.82898557 -2.609375 3.45703125 C-1 1 -1 1 0 0 Z " fill="#154E48" transform="translate(145,361)"/>
<path d="M0 0 C0.65411865 0.15678223 1.3082373 0.31356445 1.98217773 0.47509766 C8.51258122 2.22853075 13.91581944 5.37214745 17.4375 11.25 C17.72364917 14.01133953 17.82339883 16.33145612 17.6875 19.0625 C17.66945313 19.75537109 17.65140625 20.44824219 17.6328125 21.16210938 C17.58601064 22.85867664 17.51427624 24.55452476 17.4375 26.25 C12.8175 26.25 8.1975 26.25 3.4375 26.25 C3.375625 24.826875 3.31375 23.40375 3.25 21.9375 C2.87241195 18.0915871 2.87241195 18.0915871 0.25 15.3125 C-0.678125 14.961875 -1.60625 14.61125 -2.5625 14.25 C-3.408125 13.858125 -4.25375 13.46625 -5.125 13.0625 C-14.23651429 10.90886935 -22.31586153 11.86090512 -30.5625 16.25 C-36.88593235 20.2365117 -39.55576517 26.24372755 -41.5625 33.25 C-42.61829094 44.05471766 -41.2707591 53.91535537 -34.30859375 62.4921875 C-28.66387493 68.17479034 -22.83157518 70.37502783 -14.9375 70.5 C-8.59690628 70.45337799 -1.24672614 69.93422614 3.4375 65.25 C3.89756346 63.04749008 3.89756346 63.04749008 4.0625 60.625 C4.18625 59.18125 4.31 57.7375 4.4375 56.25 C9.0575 56.25 13.6775 56.25 18.4375 56.25 C18.92478246 69.16298527 18.92478246 69.16298527 16.8125 73.875 C8.63782766 82.04967234 -1.11025062 84.30877456 -12.40917969 84.44116211 C-25.74170121 84.41709039 -36.11280428 82.39631445 -46.15234375 72.765625 C-55.43390761 62.07869956 -58.99470665 50.60865557 -58.8359375 36.62109375 C-58.01510571 26.50141041 -52.65348766 16.18532796 -45.390625 9.14453125 C-31.84394006 -1.80959847 -16.74578802 -4.0814807 0 0 Z " fill="#1A4C51" transform="translate(420.5625,347.75)"/>
<path d="M0 0 C0.78181641 -0.020625 1.56363281 -0.04125 2.36914062 -0.0625 C9.26110687 -0.1085616 13.66602714 1.5528548 19.4375 5.4375 C26.83568819 13.00382883 25.72902695 23.36793949 25.875 33.25 C25.9082203 34.80341343 25.94271422 36.35680017 25.97851562 37.91015625 C26.06288248 41.68995593 26.12994329 45.4697009 26.1875 49.25 C28.4975 49.58 30.8075 49.91 33.1875 50.25 C33.1875 53.88 33.1875 57.51 33.1875 61.25 C30.62435501 61.33132187 28.06381582 61.39064175 25.5 61.4375 C24.77876953 61.46263672 24.05753906 61.48777344 23.31445312 61.51367188 C18.75042536 61.5761928 15.7438436 61.20450084 12.1875 58.25 C11.375 55.0625 11.375 55.0625 11.1875 52.25 C10.83558594 52.72050781 10.48367188 53.19101562 10.12109375 53.67578125 C6.75908372 57.91560069 3.66025539 61.13125995 -1.8125 62.25 C-8.32973627 62.87277762 -14.29700252 63.18964106 -19.8125 59.25 C-23.3710258 56.24670518 -26.03204387 53.98594972 -26.8125 49.25 C-27.31897215 42.66586211 -27.04458473 37.86472782 -22.625 32.6875 C-12.77342077 24.14946467 -2.40965355 23.89459441 10.1875 24.25 C9.93195946 22.78890937 9.65749628 21.33111904 9.375 19.875 C9.22417969 19.06289063 9.07335937 18.25078125 8.91796875 17.4140625 C8.31205058 14.89179359 8.31205058 14.89179359 5.1875 13.25 C-2.13510296 12.41468085 -8.14769724 13.2205442 -14.8125 16.25 C-15.8025 16.58 -16.7925 16.91 -17.8125 17.25 C-21.72361111 11.20555556 -21.72361111 11.20555556 -22.0625 7.5625 C-20.06439029 3.86599703 -16.63701596 2.69749769 -12.8125 1.25 C-8.52589464 0.02302475 -4.43143596 0.02879893 0 0 Z " fill="#13533A" transform="translate(474.8125,369.75)"/>
<path d="M0 0 C7.92 0 15.84 0 24 0 C24.04898438 3.05765625 24.09796875 6.1153125 24.1484375 9.265625 C24.20245097 12.22775151 24.25975706 15.18979729 24.31738281 18.15185547 C24.35565995 20.21006249 24.39051504 22.26833612 24.421875 24.32666016 C24.46755278 27.28572388 24.52554302 30.24432957 24.5859375 33.203125 C24.59748871 34.12305237 24.60903992 35.04297974 24.62094116 35.99078369 C24.64081085 36.8513739 24.66068054 37.71196411 24.68115234 38.59863281 C24.69447601 39.35364075 24.70779968 40.10864868 24.7215271 40.88653564 C25.03530355 43.26793557 25.81996226 44.92314828 27 47 C32.55089374 47.40207681 37.74093552 47.774369 42.46484375 44.46875 C49.9330401 37.3236054 49.6228918 28.00916841 49.89990234 18.31689453 C49.94868479 15.87818933 49.97650624 13.43907992 50 11 C47.03 11 44.06 11 41 11 C41 7.37 41 3.74 41 0 C48.92 0 56.84 0 65 0 C65 16.17 65 32.34 65 49 C67.64 49 70.28 49 73 49 C73 52.63 73 56.26 73 60 C70.08277452 60.08103404 67.16780484 60.14051081 64.25 60.1875 C63.0125 60.22520508 63.0125 60.22520508 61.75 60.26367188 C55.68256328 60.33706829 55.68256328 60.33706829 52.46875 58.75 C49.93178374 55.7272317 50.25306571 52.85925206 50 49 C49.608125 49.7425 49.21625 50.485 48.8125 51.25 C45.52256684 56.24162272 40.81727538 59.54304174 35 61 C26.7529419 61.83031605 20.54826684 61.28485938 13.75 56.375 C7.4931542 47.88356641 8.64798332 37.42749065 8.8125 27.4375 C8.82757361 25.84050741 8.84125728 24.24350106 8.85351562 22.64648438 C8.88631075 18.76397876 8.93794426 14.88214367 9 11 C6.03 11 3.06 11 0 11 C0 7.37 0 3.74 0 0 Z " fill="#1B357A" transform="translate(205,371)"/>
<path d="M0 0 C3.27132607 -0.08081043 6.54066421 -0.14040709 9.8125 -0.1875 C10.74126953 -0.21263672 11.67003906 -0.23777344 12.62695312 -0.26367188 C13.9659668 -0.27817383 13.9659668 -0.27817383 15.33203125 -0.29296875 C16.56530151 -0.31653442 16.56530151 -0.31653442 17.82348633 -0.34057617 C20.50995311 0.07979636 21.36074869 0.87284554 23 3 C23.66957496 5.67318858 23.77362708 8.23825037 24 11 C26.31 11 28.62 11 31 11 C31.8125 12.625 31.8125 12.625 32 15 C29.6875 17.9375 29.6875 17.9375 28.32421875 19.33984375 C25.38206414 23.02838567 24.74054201 26.90716349 24.5859375 31.51953125 C24.54726563 32.54111328 24.50859375 33.56269531 24.46875 34.61523438 C24.42234375 36.19788086 24.42234375 36.19788086 24.375 37.8125 C24.33632813 38.88693359 24.29765625 39.96136719 24.2578125 41.06835938 C24.16381387 43.71207088 24.07815427 46.3557805 24 49 C26.97 49 29.94 49 33 49 C33 52.63 33 56.26 33 60 C22.11 60 11.22 60 0 60 C0 56.37 0 52.74 0 49 C2.97 49 5.94 49 9 49 C8.67 36.79 8.34 24.58 8 12 C5.36 11.67 2.72 11.34 0 11 C0 7.37 0 3.74 0 0 Z " fill="#135833" transform="translate(516,371)"/>
<path d="M0 0 C5.08937895 1.07932649 9.40853704 3.21951268 13 7 C19.38418936 17.21470297 21.31347074 26.05935694 20 38 C18.23884423 45.04462307 15.92536703 51.48543465 10 56 C9.16082031 56.67289062 9.16082031 56.67289062 8.3046875 57.359375 C1.64432343 62.49160359 -5.72811885 63.00329913 -14 62 C-16.99659419 60.69156345 -19.48057895 59.07481734 -22 57 C-21.38125 56.71125 -20.7625 56.4225 -20.125 56.125 C-17.86674235 55.06279958 -17.86674235 55.06279958 -16 53 C-16 53.66 -16 54.32 -16 55 C-12.70924004 54.62095792 -12.70924004 54.62095792 -10 53 C-10.66 52.67 -11.32 52.34 -12 52 C-12 51.34 -12 50.68 -12 50 C-11.32453125 49.84144531 -10.6490625 49.68289063 -9.953125 49.51953125 C-4.46315217 48.08357015 -1.00715545 47.13722389 2 42 C2.35191406 41.42636719 2.70382812 40.85273438 3.06640625 40.26171875 C5.37914681 34.658887 5.12111829 27.00155971 3.01953125 21.375 C0.83695399 17.72170145 -0.98951812 15.60119985 -5 14 C-7.66353755 13.48479018 -10.29499131 13.27050087 -13 13 C-13 12.67 -13 12.34 -13 12 C-7.72 12 -2.44 12 3 12 C2.67 10.35 2.34 8.7 2 7 C2.66 6.34 3.32 5.68 4 5 C4.66 5.33 5.32 5.66 6 6 C6 5.34 6 4.68 6 4 C3.11832319 3.19347492 0.43968453 2.82484994 -2.546875 2.68359375 C-3.39121094 2.64169922 -4.23554688 2.59980469 -5.10546875 2.55664062 C-5.97816406 2.51732422 -6.85085938 2.47800781 -7.75 2.4375 C-8.63816406 2.39431641 -9.52632813 2.35113281 -10.44140625 2.30664062 C-12.62745963 2.20086385 -14.81362089 2.09877454 -17 2 C-11.91139733 -1.39240178 -5.94545908 -0.42844217 0 0 Z " fill="#1D4560" transform="translate(333,370)"/>
<path d="M0 0 C1.296875 1.55078125 1.296875 1.55078125 3.109375 4.80078125 C3.47272949 5.34831055 3.83608398 5.89583984 4.21044922 6.45996094 C5.59562697 10.06699088 5.35318506 13.69573608 5.3046875 17.50390625 C5.3018576 18.34169617 5.29902771 19.17948608 5.29611206 20.04266357 C5.28493849 22.71218288 5.25983921 25.38136375 5.234375 28.05078125 C5.22434154 29.8632764 5.21521633 31.67577681 5.20703125 33.48828125 C5.1850084 37.92591118 5.15049804 42.36328888 5.109375 46.80078125 C8.079375 46.80078125 11.049375 46.80078125 14.109375 46.80078125 C14.109375 50.43078125 14.109375 54.06078125 14.109375 57.80078125 C6.519375 57.80078125 -1.070625 57.80078125 -8.890625 57.80078125 C-8.93960938 54.99449219 -8.98859375 52.18820312 -9.0390625 49.296875 C-9.09315442 46.56301791 -9.15042959 43.82924462 -9.20800781 41.09545898 C-9.24616525 39.20327054 -9.28104067 37.31101283 -9.3125 35.41870117 C-9.35843923 32.69034153 -9.41638465 29.96245332 -9.4765625 27.234375 C-9.48811371 26.39555283 -9.49966492 25.55673065 -9.51156616 24.69248962 C-9.66958849 16.02205046 -9.66958849 16.02205046 -13.890625 8.80078125 C-13.890625 8.14078125 -13.890625 7.48078125 -13.890625 6.80078125 C-14.550625 6.47078125 -15.210625 6.14078125 -15.890625 5.80078125 C-16.23404949 4.47001136 -16.56682374 3.13646146 -16.890625 1.80078125 C-17.550625 1.14078125 -18.210625 0.48078125 -18.890625 -0.19921875 C-13.34637691 -1.83944863 -5.07219043 -3.21727781 0 0 Z " fill="#105F23" transform="translate(610.890625,373.19921875)"/>
<path d="M0 0 C4.50911167 2.17403598 6.85819183 4.49093016 9 9 C10.81693371 14.98290315 11.35493612 21.88091888 8.8359375 27.6796875 C6.2433707 31.73472788 3.65144348 35.33877019 -1 37 C-5.80295554 37.53366173 -7.95701097 37.541552 -12.25 35.3125 C-15.90758347 32.23680481 -18.47775149 29.56674553 -20 25 C-20.76503947 15.01686206 -20.42109496 9.2249304 -13.9375 1.5625 C-9.37840141 -0.86255244 -5.04989061 -0.73412507 0 0 Z " fill="#FAFCFA" transform="translate(675,383)"/>
<path d="M0 0 C4.32755251 1.50523566 6.77747496 4.53488556 9.04296875 8.42578125 C11.28759691 14.46337291 11.28759691 21.53662709 9.04296875 27.57421875 C6.72983133 31.54694048 4.23958756 34.05208139 0 36 C-0.99 36.495 -0.99 36.495 -2 37 C-6.07690834 37.39201042 -8.48296309 37.25344947 -12.1875 35.4375 C-17.07853137 31.19860614 -19.56969498 26.1478582 -20.23828125 19.703125 C-20.46758437 12.12405351 -18.74269025 7.32447304 -13.9375 1.5 C-9.36770291 -0.83351341 -5.02511424 -0.59967375 0 0 Z " fill="#F7FAFB" transform="translate(328,383)"/>
<path d="M0 0 C0.79857422 -0.01224609 1.59714844 -0.02449219 2.41992188 -0.03710938 C6.75840705 -0.04789269 10.1100252 0.16734621 14.0625 2.1875 C14.0625 2.5175 14.0625 2.8475 14.0625 3.1875 C11.4225 3.5175 8.7825 3.8475 6.0625 4.1875 C5.7325 5.8375 5.4025 7.4875 5.0625 9.1875 C7.0425 9.8475 9.0225 10.5075 11.0625 11.1875 C11.0625 15.8075 11.0625 20.4275 11.0625 25.1875 C10.0725 25.6825 10.0725 25.6825 9.0625 26.1875 C8.7325 27.1775 8.4025 28.1675 8.0625 29.1875 C7.7325 30.1775 7.4025 31.1675 7.0625 32.1875 C8.3825 32.1875 9.7025 32.1875 11.0625 32.1875 C11.7285258 35.21429051 12.1827198 38.08269308 12.0625 41.1875 C9.9375 44 9.9375 44 7.0625 46.1875 C5.7321875 47.30125 5.7321875 47.30125 4.375 48.4375 C0.46903527 51.3933652 -2.01456856 51.6881371 -6.9375 51.1875 C-9.875 49.125 -9.875 49.125 -11.9375 46.1875 C-12.34715996 42.29573039 -12.13104869 38.91733966 -10.9375 35.1875 C-8.9575 34.6925 -8.9575 34.6925 -6.9375 34.1875 C-7.9275 33.5275 -8.9175 32.8675 -9.9375 32.1875 C-9.6075 31.1975 -9.2775 30.2075 -8.9375 29.1875 C-7.9475 29.1875 -6.9575 29.1875 -5.9375 29.1875 C-5.9375 28.5275 -5.9375 27.8675 -5.9375 27.1875 C-9.28123475 27.74478913 -11.97062999 28.53923889 -14.9375 30.1875 C-15.5975 29.5275 -16.2575 28.8675 -16.9375 28.1875 C-9.81436202 25.36280735 -3.79551406 24.04609169 3.9375 24.125 C5.08992188 24.13402344 6.24234375 24.14304687 7.4296875 24.15234375 C8.29851562 24.16394531 9.16734375 24.17554688 10.0625 24.1875 C9.80695946 22.72640937 9.53249628 21.26861904 9.25 19.8125 C9.09917969 19.00039063 8.94835937 18.18828125 8.79296875 17.3515625 C8.18705058 14.82929359 8.18705058 14.82929359 5.0625 13.1875 C-2.26010296 12.35218085 -8.27269724 13.1580442 -14.9375 16.1875 C-15.9275 16.5175 -16.9175 16.8475 -17.9375 17.1875 C-21.84861111 11.14305556 -21.84861111 11.14305556 -22.1875 7.5 C-20.18939029 3.80349703 -16.76201596 2.63499769 -12.9375 1.1875 C-8.60987725 -0.05920301 -4.47368146 0.00359332 0 0 Z " fill="#1A5344" transform="translate(474.9375,369.8125)"/>
<path d="M0 0 C0 1.32 0 2.64 0 4 C-0.33 4.33 -0.66 4.66 -1 5 C-1 5.66 -1 6.32 -1 7 C-2.32 7.33 -3.64 7.66 -5 8 C-5.62432159 15.12319039 -5.62432159 15.12319039 -3.4375 21.6875 C-0.00322938 23.53672264 2.14521459 23.53169454 6 23 C9.4617684 21.06939839 12.34704787 18.94772458 15 16 C14.67 17.98 14.34 19.96 14 22 C14.66 21.34 15.32 20.68 16 20 C16 25.64285714 16 25.64285714 15 28 C8.69763923 34.01588983 3.56855198 35.42706901 -5.12890625 35.24609375 C-11.16939941 34.72833719 -14.65775506 31.67543793 -18.80078125 27.59765625 C-21.89275163 23.47838627 -21.33462997 17.90497091 -21 13 C-19.87439848 8.4975939 -17.53716234 5.96134521 -14 3 C-11.375 2.3125 -11.375 2.3125 -9 2 C-5.5647952 -0.29013653 -4.014669 -0.17842973 0 0 Z " fill="#175143" transform="translate(469,397)"/>
<path d="M0 0 C4.2533331 4.2533331 4.31394081 10.51043567 4.375 16.25 C4.18944488 26.70293841 1.61754524 34.54019328 -5.7421875 42.1171875 C-12.17474919 47.48136524 -19.06995373 48.60438293 -27.28125 48.33984375 C-30.82476337 47.89690458 -33.0470034 46.9686644 -36 45 C-36 44.01 -36 43.02 -36 42 C-34.3954444 42.14148989 -32.79136233 42.28835686 -31.1875 42.4375 C-30.29417969 42.51871094 -29.40085937 42.59992188 -28.48046875 42.68359375 C-26 43 -26 43 -23 44 C-23 44.66 -23 45.32 -23 46 C-20.69 45.01 -18.38 44.02 -16 43 C-17.65 42.34 -19.3 41.68 -21 41 C-20.34 40.01 -19.68 39.02 -19 38 C-20.7634375 38.0309375 -20.7634375 38.0309375 -22.5625 38.0625 C-25.46618791 38.07794515 -27.90958801 37.85088721 -30.8125 37.375 C-34.15173402 36.63307034 -34.15173402 36.63307034 -37 39 C-37.66 39 -38.32 39 -39 39 C-39 38.01 -39 37.02 -39 36 C-38.01 35.505 -38.01 35.505 -37 35 C-36.34 34.01 -35.68 33.02 -35 32 C-34.34 32.495 -33.68 32.99 -33 33.5 C-29.25109767 35.37445117 -26.07608076 35.70470551 -22 35 C-17.74473597 32.95419998 -14.8903072 30.43085989 -12.68359375 26.19140625 C-10.71635768 19.88500946 -11.58733021 12.35701407 -13 6 C-12.34 6 -11.68 6 -11 6 C-10.67 5.01 -10.34 4.02 -10 3 C-8.94872072 6.38391578 -8.95912402 9.33203425 -9.12109375 12.859375 C-9.16943359 13.97441406 -9.21777344 15.08945312 -9.26757812 16.23828125 C-9.32365234 17.39714844 -9.37972656 18.55601562 -9.4375 19.75 C-9.48970703 20.92433594 -9.54191406 22.09867187 -9.59570312 23.30859375 C-9.72526224 26.20600664 -9.86022447 29.10306493 -10 32 C-8.515 32.495 -8.515 32.495 -7 33 C-6.67 33.99 -6.34 34.98 -6 36 C-5.67 34.68 -5.34 33.36 -5 32 C-3.68 32 -2.36 32 -1 32 C-1.04125 31.05125 -1.0825 30.1025 -1.125 29.125 C-1 26 -1 26 1 24 C1.28162436 21.13617279 1.28162436 21.13617279 1.1875 17.9375 C1.17783203 16.31134766 1.17783203 16.31134766 1.16796875 14.65234375 C1.29831107 12.07797685 1.29831107 12.07797685 0 11 C-0.07226502 9.14712498 -0.0838122 7.29166122 -0.0625 5.4375 C-0.05347656 4.42558594 -0.04445313 3.41367187 -0.03515625 2.37109375 C-0.02355469 1.58863281 -0.01195312 0.80617188 0 0 Z " fill="#126616" transform="translate(696,384)"/>
<path d="M0 0 C4.87015545 4.42741404 8.3103347 9.57803343 12 15 C12.96340068 16.37991486 13.92835294 17.75874728 14.89453125 19.13671875 C15.90901707 20.59103221 16.92333984 22.04545942 17.9375 23.5 C18.43459473 24.20680908 18.93168945 24.91361816 19.44384766 25.6418457 C23 30.77332751 23 30.77332751 23 33 C20.03 33 17.06 33 14 33 C10.89706273 27.65605249 8.23906268 22.44632105 6.08984375 16.65234375 C4.58961953 13.00126044 2.7976992 9.51217662 1 6 C-0.58475045 8.99925342 -2.16753521 11.99954008 -3.75 15 C-4.1934375 15.83917969 -4.636875 16.67835938 -5.09375 17.54296875 C-7.79369246 22.66491841 -10.42985454 27.81166899 -13 33 C-16.3 33 -19.6 33 -23 33 C-18.45492827 26.16121971 -13.86745253 19.35260456 -9.25 12.5625 C-8.57839844 11.57056641 -7.90679687 10.57863281 -7.21484375 9.55664062 C-6.57160156 8.61111328 -5.92835938 7.66558594 -5.265625 6.69140625 C-4.68586914 5.83748291 -4.10611328 4.98355957 -3.50878906 4.10375977 C-2 2 -2 2 0 0 Z " fill="#4F9762" transform="translate(145,399)"/>
<path d="M0 0 C0.66 0 1.32 0 2 0 C2.33 0.66 2.66 1.32 3 2 C3.99 2.33 4.98 2.66 6 3 C6.06058594 3.78246094 6.12117187 4.56492187 6.18359375 5.37109375 C6.26738281 6.38300781 6.35117187 7.39492188 6.4375 8.4375 C6.51871094 9.44683594 6.59992187 10.45617187 6.68359375 11.49609375 C6.73211468 13.93640779 6.73211468 13.93640779 8 15 C8.12514928 16.97619447 8.1757276 18.95738173 8.1875 20.9375 C8.20167969 22.01902344 8.21585938 23.10054688 8.23046875 24.21484375 C8 27 8 27 6 29 C5.60235737 30.98821313 5.26224651 32.98944339 5 35 C3.68 35 2.36 35 1 35 C0.67 36.98 0.34 38.96 0 41 C-2 38 -2 38 -2 36 C-2.49346924 35.58258545 -2.98693848 35.1651709 -3.49536133 34.73510742 C-5.66988415 32.22750825 -5.25656288 30.50389892 -5.07421875 27.23828125 C-5.01943359 26.12001953 -4.96464844 25.00175781 -4.90820312 23.84960938 C-4.79895508 22.09874023 -4.79895508 22.09874023 -4.6875 20.3125 C-4.62626953 19.13365234 -4.56503906 17.95480469 -4.50195312 16.74023438 C-4.34856044 13.82577331 -4.18069004 10.91287541 -4 8 C-4.99 8 -5.98 8 -7 8 C-6.875 6.125 -6.875 6.125 -6 4 C-2.9375 2.75 -2.9375 2.75 0 2 C0 1.34 0 0.68 0 0 Z " fill="#0B680F" transform="translate(690,381)"/>
<path d="M0 0 C0.47647991 5.83687894 -0.39485052 9.49077279 -4 14 C-7.2698408 16.83386202 -9.28578515 17.88722923 -13.5625 18.5625 C-17 18 -17 18 -19.9375 15.9375 C-22 13 -22 13 -22.625 9.4375 C-22 6 -22 6 -19.875 3.6875 C-13.24493918 -0.20405744 -7.51614278 -0.24073055 0 0 Z " fill="#F3F9F8" transform="translate(485,403)"/>
<path d="M0 0 C7.26 0 14.52 0 22 0 C22 16.17 22 32.34 22 49 C24.64 49 27.28 49 30 49 C30 52.63 30 56.26 30 60 C27.04160645 60.02689449 24.08345573 60.04678741 21.125 60.0625 C20.28324219 60.07087891 19.44148438 60.07925781 18.57421875 60.08789062 C17.76855469 60.09111328 16.96289062 60.09433594 16.1328125 60.09765625 C15.01737061 60.10551147 15.01737061 60.10551147 13.87939453 60.11352539 C12 60 12 60 10 59 C10 58.34 10 57.68 10 57 C11.485 56.505 11.485 56.505 13 56 C12.7215625 55.0409375 12.7215625 55.0409375 12.4375 54.0625 C12.293125 53.381875 12.14875 52.70125 12 52 C13 51 13 51 14.84765625 50.90234375 C16.8984375 50.93489583 18.94921875 50.96744792 21 51 C20.6695166 50.22060059 20.3390332 49.44120117 19.99853516 48.63818359 C18.70085929 43.9100746 18.85508459 39.6597117 19.0234375 34.7890625 C19.04846344 33.82092621 19.07348938 32.85278992 19.09927368 31.85531616 C19.18112013 28.77816907 19.27784618 25.70169805 19.375 22.625 C19.43327568 20.53257926 19.49057816 18.44013117 19.546875 16.34765625 C19.68664629 11.23138547 19.83975929 6.11566894 20 1 C19.42024414 1.16749756 18.84048828 1.33499512 18.24316406 1.50756836 C14.74568625 2.27535381 11.28985149 1.83455572 7.75 1.5625 C7.00492188 1.51029297 6.25984375 1.45808594 5.4921875 1.40429688 C3.66105139 1.2751783 1.83046187 1.13834886 0 1 C0 0.67 0 0.34 0 0 Z " fill="#193771" transform="translate(248,371)"/>
<path d="M0 0 C0.625 1.875 0.625 1.875 1 4 C0.34 4.66 -0.32 5.32 -1 6 C-1.46396693 8.89223503 -1.46396693 8.89223503 -1.625 12.125 C-1.69976562 13.22070312 -1.77453125 14.31640625 -1.8515625 15.4453125 C-1.90054688 16.28835938 -1.94953125 17.13140625 -2 18 C-3.98 18 -5.96 18 -8 18 C-9.56272189 22.39253773 -9.56272189 22.39253773 -10 27 C-10.78375 27.185625 -11.5675 27.37125 -12.375 27.5625 C-15.37128909 28.83219047 -15.37128909 28.83219047 -16.3125 32.5 C-17.06424843 35.7326024 -17.06424843 35.7326024 -17 38 C-17.66 38.66 -18.32 39.32 -19 40 C-19 40.99 -19 41.98 -19 43 C-20.98 43 -22.96 43 -25 43 C-25.12375 43.845625 -25.2475 44.69125 -25.375 45.5625 C-26.02770327 49.15236798 -26.95247463 52.50824875 -28 56 C-26.18884044 57.81115956 -23.38721773 57.38199448 -20.9375 57.5625 C-19.83277344 57.64628906 -18.72804688 57.73007812 -17.58984375 57.81640625 C-16.73519531 57.87699219 -15.88054687 57.93757813 -15 58 C-15 58.33 -15 58.66 -15 59 C-22.26 59 -29.52 59 -37 59 C-32.49659864 49.99319728 -32.49659864 49.99319728 -30.703125 47.140625 C-30.30633545 46.50672852 -29.9095459 45.87283203 -29.50073242 45.21972656 C-29.08799072 44.5697168 -28.67524902 43.91970703 -28.25 43.25 C-27.80954346 42.55100586 -27.36908691 41.85201172 -26.9152832 41.13183594 C-23.78096096 36.17818855 -20.5600586 31.28769994 -17.28515625 26.42578125 C-12.53191354 19.33884827 -7.93354068 12.1473468 -3.29345703 4.98608398 C-2.20643342 3.31697545 -1.10489034 1.65733551 0 0 Z " fill="#1F465B" transform="translate(137,373)"/>
<path d="M0 0 C0 4.62 0 9.24 0 14 C-0.99 14.495 -0.99 14.495 -2 15 C-2.33 15.99 -2.66 16.98 -3 18 C-3.33 18.99 -3.66 19.98 -4 21 C-2.68 21 -1.36 21 0 21 C0.33 23.97 0.66 26.94 1 30 C0.01 30.33 -0.98 30.66 -2 31 C-1.67 28.03 -1.34 25.06 -1 22 C-3.37720939 22.25707735 -5.75076606 22.53017068 -8.125 22.8125 C-8.79015625 22.88275391 -9.4553125 22.95300781 -10.140625 23.02539062 C-14.64054021 23.57685082 -18.06760451 24.76429228 -22 27 C-22 26.01 -22 25.02 -22 24 C-20.68 23.67 -19.36 23.34 -18 23 C-18.99 22.34 -19.98 21.68 -21 21 C-20.67 20.01 -20.34 19.02 -20 18 C-19.01 18 -18.02 18 -17 18 C-17 17.34 -17 16.68 -17 16 C-20.34373475 16.55728913 -23.03312999 17.35173889 -26 19 C-26.66 18.34 -27.32 17.68 -28 17 C-20.87686202 14.17530735 -14.85801406 12.85859169 -7.125 12.9375 C-5.97257812 12.94652344 -4.82015625 12.95554687 -3.6328125 12.96484375 C-2.76398438 12.97644531 -1.89515625 12.98804688 -1 13 C-1.25554054 11.53890937 -1.53000372 10.08111904 -1.8125 8.625 C-1.96332031 7.81289063 -2.11414063 7.00078125 -2.26953125 6.1640625 C-2.87544942 3.64179359 -2.87544942 3.64179359 -6 2 C-8.73872955 1.54227937 -8.73872955 1.54227937 -11.6875 1.375 C-12.68136719 1.30023438 -13.67523438 1.22546875 -14.69921875 1.1484375 C-15.45847656 1.09945313 -16.21773438 1.05046875 -17 1 C-17 0.67 -17 0.34 -17 0 C-11.0885256 -0.77313045 -5.8685408 -1.14819277 0 0 Z " fill="#225A47" transform="translate(486,381)"/>
<path d="M0 0 C-0.33 0.99 -0.66 1.98 -1 3 C-1.33 2.34 -1.66 1.68 -2 1 C-3.58475045 3.99925342 -5.16753521 6.99954008 -6.75 10 C-7.1934375 10.83917969 -7.636875 11.67835938 -8.09375 12.54296875 C-10.79369246 17.66491841 -13.42985454 22.81166899 -16 28 C-19.3 28 -22.6 28 -26 28 C-21.77494509 21.64961444 -17.53309118 15.31140563 -13.25 9 C-12.67378906 8.14277344 -12.09757813 7.28554688 -11.50390625 6.40234375 C-10.67439453 5.18224609 -10.67439453 5.18224609 -9.828125 3.9375 C-9.3321582 3.20402344 -8.83619141 2.47054688 -8.32519531 1.71484375 C-5.73706934 -1.63427136 -3.81745144 -0.90413324 0 0 Z " fill="#7F9AC0" transform="translate(148,404)"/>
<path d="M0 0 C1.98 0 3.96 0 6 0 C6 1.32 6 2.64 6 4 C5.67 4.33 5.34 4.66 5 5 C5 5.66 5 6.32 5 7 C3.68 7.33 2.36 7.66 1 8 C0.87625 8.78375 0.7525 9.5675 0.625 10.375 C0 13 0 13 -2 15 C-2.66 14.67 -3.32 14.34 -4 14 C-4.66 15.65 -5.32 17.3 -6 19 C-7.32 19 -8.64 19 -10 19 C-9.67 15.7 -9.34 12.4 -9 9 C-9.99 8.67 -10.98 8.34 -12 8 C-10.63016497 4.83884224 -10.0109362 4.0072908 -7 2 C-4.67612053 1.60612212 -2.34206251 1.26513915 0 1 C0 0.67 0 0.34 0 0 Z " fill="#155041" transform="translate(463,397)"/>
<path d="M0 0 C7.92 0 15.84 0 24 0 C24 13.53 24 27.06 24 41 C23.67 41 23.34 41 23 41 C22.11264651 31.46633445 21.68926444 21.95658466 21.39453125 12.38867188 C21.35714844 11.31810547 21.31976563 10.24753906 21.28125 9.14453125 C21.25095703 8.17878174 21.22066406 7.21303223 21.18945312 6.21801758 C21.2422881 4.02750058 21.2422881 4.02750058 20 3 C18.65984779 2.84417697 17.31241097 2.74955858 15.96484375 2.68359375 C15.15595703 2.64169922 14.34707031 2.59980469 13.51367188 2.55664062 C12.66353516 2.51732422 11.81339844 2.47800781 10.9375 2.4375 C10.08349609 2.39431641 9.22949219 2.35113281 8.34960938 2.30664062 C6.23327963 2.20023298 4.11666187 2.09958269 2 2 C2 4.64 2 7.28 2 10 C4.31 10 6.62 10 9 10 C9 10.33 9 10.66 9 11 C6.03 11 3.06 11 0 11 C0 7.37 0 3.74 0 0 Z " fill="#314076" transform="translate(205,371)"/>
<path d="M0 0 C7.26 0 14.52 0 22 0 C22 16.5 22 33 22 50 C19 47 19 47 18.67720032 44.89289856 C18.70162704 44.08237534 18.72605377 43.27185211 18.7512207 42.43676758 C18.77146805 41.51603958 18.79171539 40.59531158 18.81257629 39.64668274 C18.86861275 38.16061775 18.86861275 38.16061775 18.92578125 36.64453125 C18.95222214 35.62775803 18.97866302 34.6109848 19.00590515 33.56340027 C19.09374938 30.31250835 19.20287183 27.06272322 19.3125 23.8125 C19.37575022 21.61006584 19.43761655 19.40759146 19.49804688 17.20507812 C19.64930305 11.80281604 19.81803851 6.40131028 20 1 C19.42024414 1.16749756 18.84048828 1.33499512 18.24316406 1.50756836 C14.74568625 2.27535381 11.28985149 1.83455572 7.75 1.5625 C7.00492188 1.51029297 6.25984375 1.45808594 5.4921875 1.40429688 C3.66105139 1.2751783 1.83046187 1.13834886 0 1 C0 0.67 0 0.34 0 0 Z " fill="#394979" transform="translate(248,371)"/>
<path d="M0 0 C0.66 0.99 1.32 1.98 2 3 C1.67 3.99 1.34 4.98 1 6 C0.34 6 -0.32 6 -1 6 C-1.12375 6.845625 -1.2475 7.69125 -1.375 8.5625 C-2.02770327 12.15236798 -2.95247463 15.50824875 -4 19 C-2.18884044 20.81115956 0.61278227 20.38199448 3.0625 20.5625 C4.16722656 20.64628906 5.27195312 20.73007812 6.41015625 20.81640625 C7.26480469 20.87699219 8.11945313 20.93757813 9 21 C9 21.33 9 21.66 9 22 C1.74 22 -5.52 22 -13 22 C-8.5 13 -8.5 13 -6.640625 10.15625 C-6.05087891 9.24746094 -6.05087891 9.24746094 -5.44921875 8.3203125 C-5.05347656 7.71960938 -4.65773438 7.11890625 -4.25 6.5 C-3.83878906 5.86835938 -3.42757812 5.23671875 -3.00390625 4.5859375 C-2.00636827 3.05483269 -1.00373482 1.52704956 0 0 Z " fill="#2A4276" transform="translate(113,410)"/>
<path d="M0 0 C0.66 0.33 1.32 0.66 2 1 C1.67 1.66 1.34 2.32 1 3 C1.7425 2.938125 2.485 2.87625 3.25 2.8125 C6.45383006 3.03094296 7.64031256 3.90250005 10 6 C5.12223898 10.84639278 0.65030706 13.28087301 -6 15 C-6 11.44044831 -5.10658705 10.72100827 -3 8 C-3 7.34 -3 6.68 -3 6 C-6.18762365 3.87491756 -8.26512223 3.4979837 -12 3 C-12 2.34 -12 1.68 -12 1 C-10.95199219 1.01740234 -10.95199219 1.01740234 -9.8828125 1.03515625 C-8.97273437 1.04417969 -8.06265625 1.05320312 -7.125 1.0625 C-5.76761719 1.07990234 -5.76761719 1.07990234 -4.3828125 1.09765625 C-1.9831415 1.16249257 -1.9831415 1.16249257 0 0 Z " fill="#2A3E7E" transform="translate(244,417)"/>
<path d="M0 0 C2.64453125 0.0234375 2.64453125 0.0234375 5.8125 0.375 C9.57034611 0.77645934 13.21934623 1.06988269 17 1 C16.34 2.32 15.68 3.64 15 5 C16.98 5.66 18.96 6.32 21 7 C21 7.33 21 7.66 21 8 C18.03 8.66 15.06 9.32 12 10 C11.67 9.34 11.34 8.68 11 8 C9.7625 8.04125 8.525 8.0825 7.25 8.125 C4.01759932 8.11355787 1.61718552 8.09374842 -1 6 C-1.875 4 -1.875 4 -2 2 C-1.34 1.34 -0.68 0.68 0 0 Z " fill="#0A6613" transform="translate(661,420)"/>
<path d="M0 0 C1.15242187 0.00902344 2.30484375 0.01804687 3.4921875 0.02734375 C4.36101563 0.03894531 5.22984375 0.05054688 6.125 0.0625 C6.125 3.3625 6.125 6.6625 6.125 10.0625 C4.805 9.7325 3.485 9.4025 2.125 9.0625 C1.135 9.5575 1.135 9.5575 0.125 10.0625 C-0.205 9.4025 -0.535 8.7425 -0.875 8.0625 C-1.865 8.5575 -1.865 8.5575 -2.875 9.0625 C-2.875 7.7425 -2.875 6.4225 -2.875 5.0625 C-6.49826739 3.8547442 -7.51646369 4.51938872 -10.875 6.0625 C-10.545 6.7225 -10.215 7.3825 -9.875 8.0625 C-11.195 7.7325 -12.515 7.4025 -13.875 7.0625 C-13.545 5.0825 -13.215 3.1025 -12.875 1.0625 C-8.52167264 0.22226812 -4.43057481 -0.04520995 0 0 Z " fill="#0D6118" transform="translate(646.875,372.9375)"/>
<path d="M0 0 C0.66 0.66 1.32 1.32 2 2 C1.98251781 4.91952568 1.86055367 7.72297885 1.625 10.625 C1.56828125 11.42679687 1.5115625 12.22859375 1.453125 13.0546875 C1.31152018 15.03715498 1.15697741 17.01869051 1 19 C3.64 19 6.28 19 9 19 C9 22.63 9 26.26 9 30 C-1.56 30 -12.12 30 -23 30 C-23 26.37 -23 22.74 -23 19 C-20.03 19 -17.06 19 -14 19 C-14 19.66 -14 20.32 -14 21 C-16.64 21 -19.28 21 -22 21 C-22 23.64 -22 26.28 -22 29 C-12.43 29 -2.86 29 7 29 C7 26.36 7 23.72 7 21 C4.69 21 2.38 21 0 21 C0 14.07 0 7.14 0 0 Z " fill="#3D7746" transform="translate(655,424)"/>
<path d="M0 0 C0.90492188 0.02320313 1.80984375 0.04640625 2.7421875 0.0703125 C4.10730469 0.09738281 4.10730469 0.09738281 5.5 0.125 C6.19867188 0.14820313 6.89734375 0.17140625 7.6171875 0.1953125 C7.77350442 7.07325683 7.77350442 7.07325683 6.6171875 10.1953125 C3.54523842 11.73128704 1.01474457 11.4218163 -2.3828125 11.1953125 C-5.8203125 9.6953125 -5.8203125 9.6953125 -8.3828125 8.1953125 C-7.0628125 7.8653125 -5.7428125 7.5353125 -4.3828125 7.1953125 C-4.3828125 6.5353125 -4.3828125 5.8753125 -4.3828125 5.1953125 C-3.7228125 5.1953125 -3.0628125 5.1953125 -2.3828125 5.1953125 C-2.3828125 4.5353125 -2.3828125 3.8753125 -2.3828125 3.1953125 C-3.0428125 2.8653125 -3.7028125 2.5353125 -4.3828125 2.1953125 C-2.3828125 0.1953125 -2.3828125 0.1953125 0 0 Z " fill="#19327B" transform="translate(234.3828125,419.8046875)"/>
<path d="M0 0 C2.97 0 5.94 0 9 0 C6 2 6 2 3 2 C3 3.65 3 5.3 3 7 C9.93 7.495 9.93 7.495 17 8 C17 8.66 17 9.32 17 10 C21.95 10 26.9 10 32 10 C32 6.7 32 3.4 32 0 C32.33 0 32.66 0 33 0 C33 3.63 33 7.26 33 11 C22.11 11 11.22 11 0 11 C0 7.37 0 3.74 0 0 Z " fill="#39674F" transform="translate(516,420)"/>
<path d="M0 0 C5.28 0 10.56 0 16 0 C16.33 1.98 16.66 3.96 17 6 C11.33333333 6 5.66666667 6 0 6 C-0.99 6.33 -1.98 6.66 -3 7 C-3.99 6.34 -4.98 5.68 -6 5 C-4.02 4.01 -2.04 3.02 0 2 C0 1.34 0 0.68 0 0 Z " fill="#116315" transform="translate(663,372)"/>
<path d="M0 0 C-2.71077243 2.97126708 -5.13151386 3.88243734 -9 5 C-9.2236068 7.9254644 -9.2236068 7.9254644 -8 10 C-11.375 10.625 -11.375 10.625 -15 11 C-15.66 10.34 -16.32 9.68 -17 9 C-17 7.68 -17 6.36 -17 5 C-17.99 4.67 -18.98 4.34 -20 4 C-20.33 3.34 -20.66 2.68 -21 2 C-13.90673679 0.27669093 -7.29031024 -0.2494783 0 0 Z " fill="#124F3D" transform="translate(481,371)"/>
<path d="M0 0 C2.31 0 4.62 0 7 0 C7 3.63 7 7.26 7 11 C4.41638482 11.05407567 1.83390745 11.093707 -0.75 11.125 C-1.47960937 11.14175781 -2.20921875 11.15851563 -2.9609375 11.17578125 C-6.8044624 11.21072239 -9.74606772 11.17499684 -13 9 C-13 8.67 -13 8.34 -13 8 C-11.329375 8.061875 -11.329375 8.061875 -9.625 8.125 C-5.95633975 8.41121859 -5.95633975 8.41121859 -4 6 C-1.375 5.875 -1.375 5.875 1 6 C1 6.66 1 7.32 1 8 C1.66 8 2.32 8 3 8 C3.33 6.68 3.66 5.36 4 4 C3.01 3.34 2.02 2.68 1 2 C0.67 1.34 0.34 0.68 0 0 Z " fill="#175038" transform="translate(501,420)"/>
<path d="M0 0 C0 0.99 0 1.98 0 3 C-0.99 3.33 -1.98 3.66 -3 4 C-3 3.34 -3 2.68 -3 2 C-3.99 2 -4.98 2 -6 2 C-6.33 2.99 -6.66 3.98 -7 5 C-3.06968942 8.69210994 -0.28596712 9.39008072 5 10 C5.33 10.66 5.66 11.32 6 12 C4.14375 11.9690625 4.14375 11.9690625 2.25 11.9375 C-0.6640825 11.93233319 -3.20953327 12.06984442 -6 13 C-6.33 12.01 -6.66 11.02 -7 10 C-7.78375 10.20625 -8.5675 10.4125 -9.375 10.625 C-10.24125 10.74875 -11.1075 10.8725 -12 11 C-12.66 10.34 -13.32 9.68 -14 9 C-12.92492371 7.70145279 -11.83956264 6.41141639 -10.75 5.125 C-10.14671875 4.40570313 -9.5434375 3.68640625 -8.921875 2.9453125 C-5.84425172 -0.16984278 -4.27321809 -1.42440603 0 0 Z " fill="#205E38" transform="translate(554,372)"/>
<path d="M0 0 C0.66 0.66 1.32 1.32 2 2 C1.98251781 4.91952568 1.86055367 7.72297885 1.625 10.625 C1.56828125 11.42679687 1.5115625 12.22859375 1.453125 13.0546875 C1.31152018 15.03715498 1.15697741 17.01869051 1 19 C3.64 19 6.28 19 9 19 C9 19.33 9 19.66 9 20 C7.35 20.33 5.7 20.66 4 21 C4.99 21 5.98 21 7 21 C6.34 22.98 5.68 24.96 5 27 C2.03 27 -0.94 27 -4 27 C-4.33 26.34 -4.66 25.68 -5 25 C-4.34 24.34 -3.68 23.68 -3 23 C-1.26185387 20.0889334 -0.72261634 17.8245365 -0.5859375 14.453125 C-0.52792969 13.18662109 -0.52792969 13.18662109 -0.46875 11.89453125 C-0.42234375 10.58548828 -0.42234375 10.58548828 -0.375 9.25 C-0.31699219 7.91775391 -0.31699219 7.91775391 -0.2578125 6.55859375 C-0.16379127 4.3726002 -0.07813857 2.18660938 0 0 Z " fill="#355679" transform="translate(308,424)"/>
<path d="M0 0 C-0.33 0.99 -0.66 1.98 -1 3 C-1.33 2.34 -1.66 1.68 -2 1 C-5.78034623 4.47736026 -5.78034623 4.47736026 -8 9 C-8.66 9.28875 -9.32 9.5775 -10 9.875 C-12.25281941 10.8346619 -12.25281941 10.8346619 -12.6875 13.375 C-12.8421875 14.674375 -12.8421875 14.674375 -13 16 C-13.32483418 17.33542939 -13.6550855 18.66961551 -14 20 C-14.78375 20.103125 -15.5675 20.20625 -16.375 20.3125 C-19.33045181 20.77595022 -19.33045181 20.77595022 -21 24 C-21.66 23.67 -22.32 23.34 -23 23 C-22.59910156 22.42894531 -22.19820313 21.85789062 -21.78515625 21.26953125 C-20.93244141 20.05330078 -20.93244141 20.05330078 -20.0625 18.8125 C-19.43085938 17.91273438 -18.79921875 17.01296875 -18.1484375 16.0859375 C-16.61995489 13.89048066 -15.10449794 11.68931806 -13.6015625 9.4765625 C-13.2005835 8.8889917 -12.79960449 8.3014209 -12.38647461 7.69604492 C-11.59460582 6.53460511 -10.80628056 5.37074045 -10.02172852 4.2043457 C-6.7592363 -0.56779786 -5.62186346 -1.33149398 0 0 Z " fill="#719B96" transform="translate(148,404)"/>
<path d="M0 0 C3.12522772 -0.05378021 6.2495371 -0.09356575 9.375 -0.125 C10.26445313 -0.14175781 11.15390625 -0.15851563 12.0703125 -0.17578125 C12.92109375 -0.18222656 13.771875 -0.18867188 14.6484375 -0.1953125 C15.82672119 -0.21102295 15.82672119 -0.21102295 17.02880859 -0.22705078 C19 0 19 0 21 2 C15.06 2.33 9.12 2.66 3 3 C3.33 3.99 3.66 4.98 4 6 C3.34 6 2.68 6 2 6 C2.33 6.99 2.66 7.98 3 9 C4.65 9.33 6.3 9.66 8 10 C8 10.33 8 10.66 8 11 C5.36 11 2.72 11 0 11 C0 7.37 0 3.74 0 0 Z " fill="#286534" transform="translate(631,371)"/>
<path d="M0 0 C0.66 0 1.32 0 2 0 C2.33 8.58 2.66 17.16 3 26 C5.475 26.99 5.475 26.99 8 28 C8 28.66 8 29.32 8 30 C5.66705225 30.04241723 3.33297433 30.04092937 1 30 C0 29 0 29 -0.11352539 26.22436523 C-0.10828857 25.01466064 -0.10305176 23.80495605 -0.09765625 22.55859375 C-0.09443359 21.25341797 -0.09121094 19.94824219 -0.08789062 18.60351562 C-0.07953401 17.2148431 -0.07106905 15.82617123 -0.0625 14.4375 C-0.05748666 13.04492344 -0.05292347 11.65234519 -0.04882812 10.25976562 C-0.03699434 6.8398013 -0.0205088 3.41992156 0 0 Z " fill="#D4EAE2" transform="translate(500,390)"/>
<path d="M0 0 C4.62 0 9.24 0 14 0 C14 4.62 14 9.24 14 14 C13.67 14 13.34 14 13 14 C13 9.71 13 5.42 13 1 C9.7 1 6.4 1 3 1 C3.33 3.31 3.66 5.62 4 8 C3.34 8 2.68 8 2 8 C1.67 9.32 1.34 10.64 1 12 C-0.98 12.33 -2.96 12.66 -5 13 C-4.360625 12.525625 -3.72125 12.05125 -3.0625 11.5625 C-0.05252045 7.82282844 -0.27922962 4.74690358 0 0 Z M7 2 C7 5 7 5 7 5 Z M5 5 C5.66 5 6.32 5 7 5 C6.67 5.66 6.34 6.32 6 7 C5.67 6.34 5.34 5.68 5 5 Z " fill="#3D6560" transform="translate(425,404)"/>
<path d="M0 0 C2.28515625 0.171875 2.28515625 0.171875 5.0625 0.75 C6.03960938 0.94851563 7.01671875 1.14703125 8.0234375 1.3515625 C9.00570312 1.56554687 9.98796875 1.77953125 11 2 C11.89976562 2.19335938 12.79953125 2.38671875 13.7265625 2.5859375 C15.82052538 3.04461508 17.91070912 3.52049062 20 4 C19.67 4.99 19.34 5.98 19 7 C18.45214844 6.67773438 17.90429688 6.35546875 17.33984375 6.0234375 C13.06726066 4.1546282 8.56733705 4.45707732 4 5 C-0.42312593 7.39585988 -2.03390633 10.44694097 -4 15 C-4.6875 13.375 -4.6875 13.375 -5 11 C-3.5625 7.75 -3.5625 7.75 -2 5 C-1.34 5 -0.68 5 0 5 C0 4.34 0 3.68 0 3 C-0.66 2.67 -1.32 2.34 -2 2 C-1.34 1.34 -0.68 0.68 0 0 Z " fill="#186421" transform="translate(660,379)"/>
<path d="M0 0 C2.64 0 5.28 0 8 0 C8 3.63 8 7.26 8 11 C0.41 11 -7.18 11 -15 11 C-14.67 10.01 -14.34 9.02 -14 8 C-7.07 8 -0.14 8 7 8 C7 5.69 7 3.38 7 1 C4.69 1 2.38 1 0 1 C0 0.67 0 0.34 0 0 Z " fill="#256034" transform="translate(617,420)"/>
<path d="M0 0 C9.72133169 9.4512947 9.72133169 9.4512947 10 16 C9.0078125 18.18359375 9.0078125 18.18359375 8 20 C7.17988688 18.44148245 6.36923787 16.87798284 5.5625 15.3125 C4.88380859 14.00732422 4.88380859 14.00732422 4.19140625 12.67578125 C3.04008072 10.09001736 2.43679247 7.78643472 2 5 C0.35 5 -1.3 5 -3 5 C-1.125 1.125 -1.125 1.125 0 0 Z " fill="#62987F" transform="translate(145,399)"/>
<path d="M0 0 C3.5 -0.375 3.5 -0.375 7 0 C9 3 9 3 10 5 C8.68 5 7.36 5 6 5 C6 5.99 6 6.98 6 8 C3.69 8 1.38 8 -1 8 C-1.625 5.6875 -1.625 5.6875 -2 3 C-1.34 2.01 -0.68 1.02 0 0 Z " fill="#0D5D25" transform="translate(583,375)"/>
<path d="M0 0 C0.66 0.33 1.32 0.66 2 1 C2 1.99 2 2.98 2 4 C0.35 4.33 -1.3 4.66 -3 5 C-2.67 4.01 -2.34 3.02 -2 2 C-1.34 2.33 -0.68 2.66 0 3 C0 2.01 0 1.02 0 0 Z M-7 6 C-6.01 6.33 -5.02 6.66 -4 7 C-4.75 14.75 -4.75 14.75 -7 17 C-7 17.99 -7 18.98 -7 20 C-8.32 19.67 -9.64 19.34 -11 19 C-11.45732667 13.28341664 -10.52273754 10.51350747 -7 6 Z " fill="#193A66" transform="translate(125,396)"/>
<path d="M0 0 C3.50710411 3.50710411 3.92485651 7.93804572 4.265625 12.75390625 C4.26046875 14.01074219 4.2553125 15.26757812 4.25 16.5625 C4.25515625 17.82191406 4.2603125 19.08132813 4.265625 20.37890625 C4.00569779 23.92232565 3.28067725 26.70174788 2 30 C1.67 30 1.34 30 1 30 C1.01740234 28.06833984 1.01740234 28.06833984 1.03515625 26.09765625 C1.0445327 24.41927228 1.05363305 22.74088674 1.0625 21.0625 C1.07087891 20.21236328 1.07925781 19.36222656 1.08789062 18.48632812 C1.09111328 17.67744141 1.09433594 16.86855469 1.09765625 16.03515625 C1.10289307 15.2862915 1.10812988 14.53742676 1.11352539 13.76586914 C1.19341752 11.97332261 1.19341752 11.97332261 0 11 C-0.07226502 9.14712498 -0.0838122 7.29166122 -0.0625 5.4375 C-0.05347656 4.42558594 -0.04445313 3.41367187 -0.03515625 2.37109375 C-0.02355469 1.58863281 -0.01195312 0.80617188 0 0 Z " fill="#2F7333" transform="translate(696,384)"/>
<path d="M0 0 C6.6 0 13.2 0 20 0 C20 0.33 20 0.66 20 1 C11.585 1.495 11.585 1.495 3 2 C2.67 3.98 2.34 5.96 2 8 C2.99 7.67 3.98 7.34 5 7 C8.1875 8.4375 8.1875 8.4375 11 10 C10.34 10.66 9.68 11.32 9 12 C5.94616121 11.96692593 3.03129104 11.43304158 0 11 C0 7.37 0 3.74 0 0 Z " fill="#374D70" transform="translate(284,371)"/>
<path d="M0 0 C3.27132607 -0.08081043 6.54066421 -0.14040709 9.8125 -0.1875 C10.74126953 -0.21263672 11.67003906 -0.23777344 12.62695312 -0.26367188 C13.9659668 -0.27817383 13.9659668 -0.27817383 15.33203125 -0.29296875 C16.56530151 -0.31653442 16.56530151 -0.31653442 17.82348633 -0.34057617 C20.51845072 0.08112605 21.37085961 0.8500478 23 3 C23.51171875 5.48046875 23.51171875 5.48046875 23.6875 8.1875 C23.78611328 9.53908203 23.78611328 9.53908203 23.88671875 10.91796875 C23.92410156 11.60503906 23.96148438 12.29210937 24 13 C23.34 13 22.68 13 22 13 C21.87882813 12.36191406 21.75765625 11.72382813 21.6328125 11.06640625 C21.46523438 10.24011719 21.29765625 9.41382813 21.125 8.5625 C20.96257813 7.73878906 20.80015625 6.91507812 20.6328125 6.06640625 C20.42398438 5.38449219 20.21515625 4.70257813 20 4 C19.34 3.67 18.68 3.34 18 3 C18 2.34 18 1.68 18 1 C12.39 1 6.78 1 1 1 C1.98232756 8.62799471 1.98232756 8.62799471 5.125 10.5 C5.74375 10.665 6.3625 10.83 7 11 C4.69 11 2.38 11 0 11 C0 7.37 0 3.74 0 0 Z " fill="#2C5B44" transform="translate(516,371)"/>
<path d="M0 0 C3.51056197 2.84714869 4.89669347 4.2024736 5.48828125 8.76953125 C5.45539031 10.11805963 5.39624286 11.4661725 5.3125 12.8125 C5.27866211 13.85180664 5.27866211 13.85180664 5.24414062 14.91210938 C5.18562661 16.60901573 5.0959548 18.30479861 5 20 C0.38 20 -4.24 20 -9 20 C-9 19.67 -9 19.34 -9 19 C-5.7 19 -2.4 19 1 19 C2.40519473 13.37922106 3.10143354 8.24876014 0.5 2.9375 C0.005 2.298125 -0.49 1.65875 -1 1 C-0.67 0.67 -0.34 0.34 0 0 Z " fill="#3F625D" transform="translate(433,354)"/>
<path d="M0 0 C0.74886475 0.00523682 1.49772949 0.01047363 2.26928711 0.01586914 C3.07817383 0.0190918 3.88706055 0.02231445 4.72045898 0.02563477 C5.5705957 0.03401367 6.42073242 0.04239258 7.29663086 0.05102539 C8.15063477 0.05553711 9.00463867 0.06004883 9.88452148 0.06469727 C12.00108749 0.07652166 14.11761771 0.0944577 16.23413086 0.11352539 C16.56413086 1.10352539 16.89413086 2.09352539 17.23413086 3.11352539 C16.03916992 3.04391602 14.84420898 2.97430664 13.61303711 2.90258789 C1.90536712 2.29285874 1.90536712 2.29285874 -8.23461914 7.60571289 C-9.41681526 8.76981417 -10.59268555 9.9403418 -11.76586914 11.11352539 C-12.42586914 8.80352539 -13.08586914 6.49352539 -13.76586914 4.11352539 C-12.44586914 3.78352539 -11.12586914 3.45352539 -9.76586914 3.11352539 C-9.76586914 3.77352539 -9.76586914 4.43352539 -9.76586914 5.11352539 C-9.10586914 5.11352539 -8.44586914 5.11352539 -7.76586914 5.11352539 C-7.76586914 4.12352539 -7.76586914 3.13352539 -7.76586914 2.11352539 C-6.55930664 1.89696289 -6.55930664 1.89696289 -5.32836914 1.67602539 C-2.97188678 1.15874878 -2.23170992 0.14347368 0 0 Z " fill="#DCF1DD" transform="translate(665.765869140625,367.886474609375)"/>
<path d="M0 0 C0.66 0.99 1.32 1.98 2 3 C-3.33722461 6.83613019 -8.49421921 7.36970536 -14.8125 6.4375 C-18.14917262 5.62083888 -18.14917262 5.62083888 -21 8 C-21.66 8 -22.32 8 -23 8 C-23 7.01 -23 6.02 -23 5 C-22.34 4.67 -21.68 4.34 -21 4 C-20.34 3.01 -19.68 2.02 -19 1 C-18.34 1.495 -17.68 1.99 -17 2.5 C-13.27154109 4.36422946 -10.05725334 4.75134321 -6 4 C-3.70050346 2.87699006 -2.0174989 1.61399912 0 0 Z " fill="#1C6423" transform="translate(680,415)"/>
<path d="M0 0 C0.66 0 1.32 0 2 0 C1.67 14.85 1.34 29.7 1 45 C0.67 45 0.34 45 0 45 C-0.16784025 38.75220534 -0.32780106 32.50424527 -0.48217773 26.25610352 C-0.53568206 24.12877795 -0.59101764 22.00149764 -0.64819336 19.87426758 C-0.72986981 16.8238298 -0.80504681 13.77329203 -0.87890625 10.72265625 C-0.90594131 9.76537125 -0.93297638 8.80808624 -0.96083069 7.8217926 C-0.98092697 6.94095505 -1.00102325 6.06011749 -1.02172852 5.15258789 C-1.04171402 4.37315323 -1.06169952 3.59371857 -1.08229065 2.79066467 C-1 1 -1 1 0 0 Z " fill="#1D592A" transform="translate(602,385)"/>
<path d="M0 0 C0.90901939 3.04842865 1.06173367 5.59661636 0.87890625 8.765625 C0.83056641 9.65507812 0.78222656 10.54453125 0.73242188 11.4609375 C0.64831055 12.84152344 0.64831055 12.84152344 0.5625 14.25 C0.51029297 15.18585938 0.45808594 16.12171875 0.40429688 17.0859375 C0.27493175 19.39098887 0.13997966 21.69557289 0 24 C-0.66 24 -1.32 24 -2 24 C-2.33 25.65 -2.66 27.3 -3 29 C-3.66 28.67 -4.32 28.34 -5 28 C-3.125 22.125 -3.125 22.125 -2 21 C-1.68122126 14.97133153 -1.68596557 8.91315492 -3 3 C-2.34 3 -1.68 3 -1 3 C-0.67 2.01 -0.34 1.02 0 0 Z " fill="#1D6920" transform="translate(686,387)"/>
<path d="M0 0 C1 2 1 2 1 4 C1.66 4.33 2.32 4.66 3 5 C1.85485202 10.41342681 0.65987191 12.9342948 -4 16 C-4.1875 13.125 -4.1875 13.125 -4 10 C-3.01 9.34 -2.02 8.68 -1 8 C-1.99 8.33 -2.98 8.66 -4 9 C-4 8.34 -4 7.68 -4 7 C-4.66 6.67 -5.32 6.34 -6 6 C-4 4 -2 2 0 0 Z " fill="#235645" transform="translate(483,413)"/>
<path d="M0 0 C0.99 0 1.98 0 3 0 C3.33 1.32 3.66 2.64 4 4 C4.66 3.67 5.32 3.34 6 3 C6 4.32 6 5.64 6 7 C6.99 7.33 7.98 7.66 9 8 C9.33 8.66 9.66 9.32 10 10 C11.64142963 11.0409066 13.30712215 12.04504326 15 13 C14.01 13.495 14.01 13.495 13 14 C8.45487222 12.40078837 4.95844504 10.94459339 2 7 C0.75 3.25 0.75 3.25 0 0 Z " fill="#203175" transform="translate(215,418)"/>
<path d="M0 0 C4.875 1.875 4.875 1.875 6 3 C6.04080783 4.99958364 6.04254356 7.00045254 6 9 C5.401875 8.79375 4.80375 8.5875 4.1875 8.375 C1.71549154 7.69328085 1.71549154 7.69328085 -1 10 C-1.02689216 8.52093108 -1.04634621 7.04172517 -1.0625 5.5625 C-1.07410156 4.73878906 -1.08570313 3.91507812 -1.09765625 3.06640625 C-1 1 -1 1 0 0 Z " fill="#0E5631" transform="translate(161,391)"/>
<path d="M0 0 C0.66 0 1.32 0 2 0 C2.33 1.65 2.66 3.3 3 5 C2.34 5 1.68 5 1 5 C1 5.66 1 6.32 1 7 C1.94875 6.814375 2.8975 6.62875 3.875 6.4375 C8.64479926 5.73231407 13.24924288 6.37867362 18 7 C18 7.33 18 7.66 18 8 C10.74 8 3.48 8 -4 8 C-2.68 5.36 -1.36 2.72 0 0 Z " fill="#394A80" transform="translate(104,424)"/>
<path d="M0 0 C0.79857422 -0.01224609 1.59714844 -0.02449219 2.41992188 -0.03710938 C6.75840705 -0.04789269 10.1100252 0.16734621 14.0625 2.1875 C14.0625 2.5175 14.0625 2.8475 14.0625 3.1875 C10.6875 3.8125 10.6875 3.8125 7.0625 4.1875 C6.4025 3.5275 5.7425 2.8675 5.0625 2.1875 C-1.53177374 1.43930356 -8.3796418 2.40613817 -14.9375 3.1875 C-10.91288798 -0.83711202 -5.35936293 0.00430471 0 0 Z " fill="#2F5D4F" transform="translate(474.9375,369.8125)"/>
<path d="M0 0 C3.625 0.375 3.625 0.375 7 1 C6.38511719 1.67095703 6.38511719 1.67095703 5.7578125 2.35546875 C2.74359926 5.73744485 0.33949455 8.579668 -1 13 C-1.66 13 -2.32 13 -3 13 C-3 10.69 -3 8.38 -3 6 C-2.34 6 -1.68 6 -1 6 C-1.20625 5.38125 -1.4125 4.7625 -1.625 4.125 C-1.74875 3.42375 -1.8725 2.7225 -2 2 C-1.34 1.34 -0.68 0.68 0 0 Z " fill="#24416B" transform="translate(310,382)"/>
<path d="M0 0 C0.66 0.33 1.32 0.66 2 1 C-0.64 5.95 -3.28 10.9 -6 16 C-7.54586876 12.90826248 -7.29359521 10.40570448 -7 7 C-5 4.5625 -5 4.5625 -3 3 C-2.34 3.33 -1.68 3.66 -1 4 C-0.67 2.68 -0.34 1.36 0 0 Z " fill="#7C9AA6" transform="translate(141,409)"/>
<path d="M0 0 C0 4.29 0 8.58 0 13 C-0.33 13 -0.66 13 -1 13 C-1.10957031 12.37351562 -1.21914063 11.74703125 -1.33203125 11.1015625 C-1.49058594 10.28429687 -1.64914062 9.46703125 -1.8125 8.625 C-1.96332031 7.81289063 -2.11414063 7.00078125 -2.26953125 6.1640625 C-2.87544942 3.64179359 -2.87544942 3.64179359 -6 2 C-8.73872955 1.54227937 -8.73872955 1.54227937 -11.6875 1.375 C-12.68136719 1.30023438 -13.67523438 1.22546875 -14.69921875 1.1484375 C-15.45847656 1.09945313 -16.21773438 1.05046875 -17 1 C-17 0.67 -17 0.34 -17 0 C-11.0885256 -0.77313045 -5.8685408 -1.14819277 0 0 Z " fill="#3D6C5B" transform="translate(486,381)"/>
<path d="M0 0 C0.66 0.66 1.32 1.32 2 2 C0.96359375 2.04898437 -0.0728125 2.09796875 -1.140625 2.1484375 C-2.51044208 2.22349597 -3.88023248 2.29904247 -5.25 2.375 C-5.93191406 2.4059375 -6.61382813 2.436875 -7.31640625 2.46875 C-11.04587387 2.68600054 -13.75469511 3.16303497 -17 5 C-19.25 4.625 -19.25 4.625 -21 4 C-14.55947632 -0.90706566 -7.90605644 -0.88186881 0 0 Z " fill="#1F5C31" transform="translate(604,370)"/>
<path d="M0 0 C4 2 4 2 5.25 4.3125 C6.00511726 7.01833686 6.1595955 9.20707882 6 12 C4.35 11.67 2.7 11.34 1 11 C0.67 7.37 0.34 3.74 0 0 Z " fill="#0E5F1C" transform="translate(176,411)"/>
<path d="M0 0 C2.97 0 5.94 0 9 0 C9 0.33 9 0.66 9 1 C6.36 1 3.72 1 1 1 C1.8604139 5.33229715 1.8604139 5.33229715 4 9 C6.52596259 9.23653523 9.03107207 9.42173692 11.5625 9.5625 C12.27341797 9.60568359 12.98433594 9.64886719 13.71679688 9.69335938 C15.47761912 9.79971777 17.2387832 9.90038846 19 10 C19 10.33 19 10.66 19 11 C12.73 11 6.46 11 0 11 C0 7.37 0 3.74 0 0 Z " fill="#374C6F" transform="translate(285,443)"/>
<path d="M0 0 C1 2 1 2 0.32421875 4.41796875 C-1.91085761 8.776038 -5.67035375 10.90569228 -10 13 C-12.57526822 13.45418367 -14.37599199 13.33497975 -17 13 C-16.42121094 12.71640625 -15.84242188 12.4328125 -15.24609375 12.140625 C-8.94462065 8.94057257 -4.24430072 5.70327909 0 0 Z " fill="#D0ECD3" transform="translate(695,419)"/>
<path d="M0 0 C4.29 0 8.58 0 13 0 C13.33 1.98 13.66 3.96 14 6 C12.68 6 11.36 6 10 6 C10 5.34 10 4.68 10 4 C9.36191406 3.87882812 8.72382812 3.75765625 8.06640625 3.6328125 C7.24011719 3.46523438 6.41382813 3.29765625 5.5625 3.125 C4.73878906 2.96257812 3.91507813 2.80015625 3.06640625 2.6328125 C2.38449219 2.42398437 1.70257812 2.21515625 1 2 C0.67 1.34 0.34 0.68 0 0 Z " fill="#066A13" transform="translate(666,372)"/>
<path d="M0 0 C2.5 0.3125 2.5 0.3125 5 1 C5.33 1.66 5.66 2.32 6 3 C7.89533342 3.46523063 7.89533342 3.46523063 10.0625 3.625 C11.361875 3.74875 12.66125 3.8725 14 4 C14 4.33 14 4.66 14 5 C11.04142591 5.05379226 8.08382279 5.09357093 5.125 5.125 C3.86236328 5.15013672 3.86236328 5.15013672 2.57421875 5.17578125 C1.76855469 5.18222656 0.96289062 5.18867188 0.1328125 5.1953125 C-0.61081543 5.20578613 -1.35444336 5.21625977 -2.12060547 5.22705078 C-4 5 -4 5 -6 3 C-5.195625 2.690625 -4.39125 2.38125 -3.5625 2.0625 C-1.10919595 1.23664655 -1.10919595 1.23664655 0 0 Z " fill="#2D4476" transform="translate(264,426)"/>
<path d="M0 0 C0.33 0 0.66 0 1 0 C1 1.65 1 3.3 1 5 C1.66 5.33 2.32 5.66 3 6 C2.01 6.33 1.02 6.66 0 7 C0 12.94 0 18.88 0 25 C2.64 25 5.28 25 8 25 C8 25.33 8 25.66 8 26 C5.03 26 2.06 26 -1 26 C-1.02907084 22.41668375 -1.04682263 18.83339792 -1.0625 15.25 C-1.07087891 14.23421875 -1.07925781 13.2184375 -1.08789062 12.171875 C-1.09111328 11.1921875 -1.09433594 10.2125 -1.09765625 9.203125 C-1.10289307 8.30239258 -1.10812988 7.40166016 -1.11352539 6.47363281 C-1.00762312 4.16610196 -0.65132813 2.20865595 0 0 Z " fill="#C6DFCA" transform="translate(579,394)"/>
<path d="M0 0 C0 0.33 0 0.66 0 1 C-1.051875 1.02126953 -1.051875 1.02126953 -2.125 1.04296875 C-8.30516575 1.35365643 -12.35616818 2.2112868 -17.34375 5.94140625 C-19 7 -19 7 -22 7 C-20.62081794 3.60564001 -19.37767908 2.24017881 -16.0625 0.6875 C-10.60048482 -1.59871808 -5.7211465 -0.98382332 0 0 Z " fill="#D7ECDE" transform="translate(601,369)"/>
<path d="M0 0 C0 0.66 0 1.32 0 2 C-1.50197356 3.24076077 -3.00612315 4.47921817 -4.53125 5.69140625 C-6.28660135 7.25534961 -7.18614864 8.80260134 -8 11 C-9.32 11 -10.64 11 -12 11 C-11.4140625 4.84765625 -11.4140625 4.84765625 -11 3 C-10.34 2.67 -9.68 2.34 -9 2 C-8.67 2.99 -8.34 3.98 -8 5 C-7.05125 4.175 -6.1025 3.35 -5.125 2.5 C-2.25 0 -2.25 0 0 0 Z " fill="#2D4E6E" transform="translate(316,372)"/>
<path d="M0 0 C1.68762851 1.6454378 3.3540349 3.31288577 5 5 C5 5.33 5 5.66 5 6 C3.35 6 1.7 6 0 6 C0 6.66 0 7.32 0 8 C-1.65 8.33 -3.3 8.66 -5 9 C-3.7508258 5.54074837 -2.32472205 2.85306797 0 0 Z " fill="#2C5553" transform="translate(145,361)"/>
<path d="M0 0 C1.98 0 3.96 0 6 0 C6 3.3 6 6.6 6 10 C1.38 10 -3.24 10 -8 10 C-8 9.67 -8 9.34 -8 9 C-2.555 8.01 -2.555 8.01 3 7 C3.66 5.02 4.32 3.04 5 1 C3.35 1 1.7 1 0 1 C0 0.67 0 0.34 0 0 Z " fill="#273B67" transform="translate(272,420)"/>
<path d="M0 0 C1.65 0 3.3 0 5 0 C4.01 2.64 3.02 5.28 2 8 C1.67 7.34 1.34 6.68 1 6 C0.34 6 -0.32 6 -1 6 C-1 8.64 -1 11.28 -1 14 C-1.33 14 -1.66 14 -2 14 C-2.3690205 4.58997722 -2.3690205 4.58997722 0 0 Z " fill="#2F5F54" transform="translate(450,405)"/>
<path d="M0 0 C0.99 0.33 1.98 0.66 3 1 C3 2.65 3 4.3 3 6 C2.05125 6.268125 1.1025 6.53625 0.125 6.8125 C-3.25267273 7.74986588 -3.25267273 7.74986588 -5 11 C-5.66 10.67 -6.32 10.34 -7 10 C-3.535 5.05 -3.535 5.05 0 0 Z " fill="#6C90AD" transform="translate(132,417)"/>
<path d="M0 0 C2.0625 0.4375 2.0625 0.4375 4 1 C3.67 2.32 3.34 3.64 3 5 C3.99 5.33 4.98 5.66 6 6 C4.39504433 5.88557539 2.79101881 5.75805306 1.1875 5.625 C0.29417969 5.55539062 -0.59914063 5.48578125 -1.51953125 5.4140625 C-4 5 -4 5 -7 3 C-5.5459375 2.5359375 -5.5459375 2.5359375 -4.0625 2.0625 C-1.15934208 1.30476658 -1.15934208 1.30476658 0 0 Z " fill="#33595E" transform="translate(396,426)"/>
<path d="M0 0 C0.33 0 0.66 0 1 0 C1.61046468 8.13952903 1.2922002 13.5737569 -4 20 C-5.08784335 16.68604014 -5.07262544 16.16419665 -3.5625 12.75 C-3.046875 11.8425 -2.53125 10.935 -2 10 C-1.34 10 -0.68 10 0 10 C0 6.7 0 3.4 0 0 Z " fill="#CCEBD0" transform="translate(684,396)"/>
<path d="M0 0 C1.32 0 2.64 0 4 0 C5.31626692 3.61973402 6 6.09567131 6 10 C8.64 10 11.28 10 14 10 C14 10.33 14 10.66 14 11 C11.03 11 8.06 11 5 11 C4.16151196 9.54462432 3.32936066 8.08559627 2.5 6.625 C1.80390625 5.40683594 1.80390625 5.40683594 1.09375 4.1640625 C0 2 0 2 0 0 Z " fill="#72A67E" transform="translate(154,421)"/>
<path d="M0 0 C0.66 0.33 1.32 0.66 2 1 C1.01 1.33 0.02 1.66 -1 2 C-0.896875 2.763125 -0.79375 3.52625 -0.6875 4.3125 C-0.790625 5.199375 -0.89375 6.08625 -1 7 C-3.3832946 8.81883009 -4.95818337 10 -8 10 C-6.5682479 4.98886765 -4.01554307 3.05530451 0 0 Z " fill="#DEF2DE" transform="translate(664,383)"/>
<path d="M0 0 C1.58323688 -0.027193 3.16661062 -0.04648306 4.75 -0.0625 C6.07257813 -0.07990234 6.07257813 -0.07990234 7.421875 -0.09765625 C9.7818838 -0.00826198 11.74498524 0.33087179 14 1 C14 1.66 14 2.32 14 3 C14.66 3 15.32 3 16 3 C16.33 4.32 16.66 5.64 17 7 C16.01 7.495 16.01 7.495 15 8 C14.566875 7.21625 14.13375 6.4325 13.6875 5.625 C9.7194866 1.74926598 5.36734195 1.62002054 0 1 C0 0.67 0 0.34 0 0 Z " fill="#486278" transform="translate(320,382)"/>
<path d="M0 0 C0 0.66 0 1.32 0 2 C0.66 2.33 1.32 2.66 2 3 C1.43410156 3.19335938 0.86820313 3.38671875 0.28515625 3.5859375 C-0.81505859 3.97652344 -0.81505859 3.97652344 -1.9375 4.375 C-2.66839844 4.63023437 -3.39929688 4.88546875 -4.15234375 5.1484375 C-6.18682116 5.85271413 -6.18682116 5.85271413 -7 8 C-9.0625 8.625 -9.0625 8.625 -11 9 C-10.67 6.69 -10.34 4.38 -10 2 C-9.01 3.485 -9.01 3.485 -8 5 C-7.05125 4.175 -6.1025 3.35 -5.125 2.5 C-2.25 0 -2.25 0 0 0 Z " fill="#36753D" transform="translate(663,372)"/>
<path d="M0 0 C1.98 0.495 1.98 0.495 4 1 C4 1.66 4 2.32 4 3 C5.98 3 7.96 3 10 3 C10 3.99 10 4.98 10 6 C5.6109185 5.48964169 2.66291938 4.47785723 -1 2 C-0.67 1.34 -0.34 0.68 0 0 Z " fill="#2A6F34" transform="translate(660,426)"/>
<path d="M0 0 C2.31 0.33 4.62 0.66 7 1 C7 1.66 7 2.32 7 3 C10.3 3.33 13.6 3.66 17 4 C17 4.33 17 4.66 17 5 C15.10448978 5.05441656 13.2085208 5.09298035 11.3125 5.125 C10.25675781 5.14820313 9.20101563 5.17140625 8.11328125 5.1953125 C4.97748141 4.99858729 2.82354627 4.33057654 0 3 C0 2.01 0 1.02 0 0 Z " fill="#356156" transform="translate(456,427)"/>
<path d="M0 0 C4 0 4 0 6 1 C5.375 2.875 5.375 2.875 4 5 C0.875 6.25 0.875 6.25 -2 7 C-2.33 6.01 -2.66 5.02 -3 4 C-2.67 3.34 -2.34 2.68 -2 2 C-1.34 2 -0.68 2 0 2 C0 1.34 0 0.68 0 0 Z " fill="#0E4E39" transform="translate(477,420)"/>
<path d="M0 0 C2.40072955 2.88087546 4.47291037 5.56404834 6 9 C0.33846154 7.52307692 0.33846154 7.52307692 -1.375 4.875 C-1.58125 4.25625 -1.7875 3.6375 -2 3 C-1.34 2.01 -0.68 1.02 0 0 Z " fill="#27643B" transform="translate(171,400)"/>
<path d="M0 0 C0.33 0 0.66 0 1 0 C1 3.3 1 6.6 1 10 C-3.29 10 -7.58 10 -12 10 C-12 9.67 -12 9.34 -12 9 C-8.7 9 -5.4 9 -2 9 C-1.34 6.03 -0.68 3.06 0 0 Z " fill="#253F5A" transform="translate(316,444)"/>
<path d="M0 0 C2.97 0.99 5.94 1.98 9 3 C5.54337669 5.30441554 4.05142119 5.25860135 0 5 C-0.66 4.67 -1.32 4.34 -2 4 C-2 3.34 -2 2.68 -2 2 C-1.34 2 -0.68 2 0 2 C0 1.34 0 0.68 0 0 Z " fill="#046812" transform="translate(663,376)"/>
<path d="M0 0 C1.98 0 3.96 0 6 0 C5.38722388 2.96175123 4.74627478 4.38058783 3 7 C2.01 7 1.02 7 0 7 C0 4.69 0 2.38 0 0 Z " fill="#1B3D6A" transform="translate(120,424)"/>
<path d="M0 0 C0.66 1.32 1.32 2.64 2 4 C1.360625 4.78375 0.72125 5.5675 0.0625 6.375 C-1.98142313 8.79539281 -1.98142313 8.79539281 -3 11 C-3.99 10.67 -4.98 10.34 -6 10 C-5.67 9.01 -5.34 8.02 -5 7 C-4.34 7 -3.68 7 -3 7 C-2.690625 6.21625 -2.38125 5.4325 -2.0625 4.625 C-1 2 -1 2 0 0 Z " fill="#DEE9EF" transform="translate(349,417)"/>
<path d="M0 0 C0.99 0.33 1.98 0.66 3 1 C2.21625 1.886875 1.4325 2.77375 0.625 3.6875 C-1.57156991 6.30720519 -2.93790341 8.71715601 -4 12 C-4.33 12 -4.66 12 -5 12 C-5 9.69 -5 7.38 -5 5 C-4.01 4.67 -3.02 4.34 -2 4 C-2 3.01 -2 2.02 -2 1 C-1.34 0.67 -0.68 0.34 0 0 Z " fill="#306346" transform="translate(545,385)"/>
<path d="M0 0 C0.33 0 0.66 0 1 0 C1 3.63 1 7.26 1 11 C-0.32 11.33 -1.64 11.66 -3 12 C-3.66 11.34 -4.32 10.68 -5 10 C-4.01 9.34 -3.02 8.68 -2 8 C-1.21011855 6.04614933 -1.21011855 6.04614933 -0.8125 3.875 C-0.544375 2.59625 -0.27625 1.3175 0 0 Z " fill="#E0E8F3" transform="translate(245,371)"/>
<path d="M0 0 C2.52588702 2.36292656 3.88820837 3.66462511 5 7 C2.69 7 0.38 7 -2 7 C-2 5.68 -2 4.36 -2 3 C-1.34 2.67 -0.68 2.34 0 2 C0 1.34 0 0.68 0 0 Z " fill="#489256" transform="translate(163,424)"/>
<path d="M0 0 C0.33 0 0.66 0 1 0 C1 2.31 1 4.62 1 7 C0.2575 7.144375 -0.485 7.28875 -1.25 7.4375 C-3.52027739 7.90187492 -5.75759479 8.41863569 -8 9 C-6.8553125 7.88625 -6.8553125 7.88625 -5.6875 6.75 C-3.55897715 4.57197662 -1.80222694 2.43300637 0 0 Z " fill="#BEDAD2" transform="translate(486,421)"/>
<path d="M0 0 C0.66 0.99 1.32 1.98 2 3 C1.67 3.99 1.34 4.98 1 6 C0.34 6 -0.32 6 -1 6 C-1.268125 6.94875 -1.53625 7.8975 -1.8125 8.875 C-3 12 -3 12 -6 14 C-4.50829734 9.0276578 -2.39542583 4.58154261 0 0 Z " fill="#E4F1F6" transform="translate(139,416)"/>
<path d="M0 0 C0.66 0.33 1.32 0.66 2 1 C2 1.66 2 2.32 2 3 C2.66 3.66 3.32 4.32 4 5 C2.02 5.66 0.04 6.32 -2 7 C-3 6 -3 6 -3.0625 3.4375 C-3.041875 2.633125 -3.02125 1.82875 -3 1 C-2.01 0.67 -1.02 0.34 0 0 Z " fill="#213C75" transform="translate(259,422)"/>
<path d="M0 0 C0.99 0.66 1.98 1.32 3 2 C3 2.66 3 3.32 3 4 C-3.93 3.67 -10.86 3.34 -18 3 C-18 2.67 -18 2.34 -18 2 C-16.17662109 1.90912109 -16.17662109 1.90912109 -14.31640625 1.81640625 C-12.73175772 1.73201668 -11.14712298 1.6473679 -9.5625 1.5625 C-8.76005859 1.52318359 -7.95761719 1.48386719 -7.13085938 1.44335938 C-3.24760439 1.5945704 -3.24760439 1.5945704 0 0 Z " fill="#CBE8CF" transform="translate(649,368)"/>
<path d="M0 0 C1.66611905 -0.042721 3.33382885 -0.04063832 5 0 C5.33 0.33 5.66 0.66 6 1 C8.34987262 1.23527773 10.70556039 1.41386417 13.0625 1.5625 C14.35285156 1.64628906 15.64320313 1.73007812 16.97265625 1.81640625 C18.47119141 1.90728516 18.47119141 1.90728516 20 2 C20 2.33 20 2.66 20 3 C17.41638482 3.05407567 14.83390745 3.093707 12.25 3.125 C11.52039063 3.14175781 10.79078125 3.15851563 10.0390625 3.17578125 C6.1955376 3.21072239 3.25393228 3.17499684 0 1 C0 0.67 0 0.34 0 0 Z " fill="#335D4C" transform="translate(488,428)"/>
<path d="M0 0 C0.33 0 0.66 0 1 0 C1 4.29 1 8.58 1 13 C0.34 13 -0.32 13 -1 13 C-1.33 14.65 -1.66 16.3 -2 18 C-2.66 17.67 -3.32 17.34 -4 17 C-2.125 11.125 -2.125 11.125 -1 10 C-0.76712992 8.31816052 -0.58735834 6.6287584 -0.4375 4.9375 C-0.31181641 3.55884766 -0.31181641 3.55884766 -0.18359375 2.15234375 C-0.12300781 1.44207031 -0.06242188 0.73179687 0 0 Z " fill="#2E6F33" transform="translate(685,398)"/>
<path d="M0 0 C1.32 0.33 2.64 0.66 4 1 C4 2.32 4 3.64 4 5 C4.66 5.33 5.32 5.66 6 6 C5.67 6.66 5.34 7.32 5 8 C5.66 8 6.32 8 7 8 C7 8.66 7 9.32 7 10 C3.17398693 8.54875366 1.77670876 6.64225296 0 3 C0 2.01 0 1.02 0 0 Z " fill="#145838" transform="translate(154,408)"/>
<path d="M0 0 C0 0.66 0 1.32 0 2 C-1.2375 2.12375 -2.475 2.2475 -3.75 2.375 C-6.8762197 2.75746305 -9.28879237 3.30549523 -12 5 C-12.66 4.34 -13.32 3.68 -14 3 C-9.07015675 0.96006486 -5.42039575 -0.40652968 0 0 Z " fill="#346051" transform="translate(472,395)"/>
<path d="M0 0 C0.33 0 0.66 0 1 0 C0.67 2.64 0.34 5.28 0 8 C-0.66 8 -1.32 8 -2 8 C-2.99 9.485 -2.99 9.485 -4 11 C-4.66 11 -5.32 11 -6 11 C-4.55007731 6.89188572 -2.54592427 3.53144334 0 0 Z " fill="#34516D" transform="translate(125,391)"/>
<path d="M0 0 C0.66 0.66 1.32 1.32 2 2 C-2.75 7.75 -2.75 7.75 -5 10 C-5 7.36 -5 4.72 -5 2 C-3.35 2 -1.7 2 0 2 C0 1.34 0 0.68 0 0 Z " fill="#C8E8D7" transform="translate(544,373)"/>
<path d="M0 0 C0 3 0 3 -1.6875 5.125 C-4.20933322 7.16972964 -5.81390075 7.64598897 -9 8 C-6.14723863 5.06799526 -3.34920216 2.35684596 0 0 Z " fill="#385A64" transform="translate(382,352)"/>
<path d="M0 0 C0.33 0 0.66 0 1 0 C1.16873478 1.43725871 1.33490737 2.87481838 1.5 4.3125 C1.5928125 5.11300781 1.685625 5.91351563 1.78125 6.73828125 C2 9 2 9 2 12 C1.01 12.33 0.02 12.66 -1 13 C-1 12.34 -1 11.68 -1 11 C-1.66 10.67 -2.32 10.34 -3 10 C-2.34 9.34 -1.68 8.68 -1 8 C-0.95907063 5.66702567 -0.95758277 3.33294775 -1 1 C-0.67 0.67 -0.34 0.34 0 0 Z " fill="#CCD4E1" transform="translate(255,419)"/>
<path d="M0 0 C1.32 0.66 2.64 1.32 4 2 C3.75 4.375 3.75 4.375 3 7 C0.9375 8.3125 0.9375 8.3125 -1 9 C-1 8.34 -1 7.68 -1 7 C-0.34 7 0.32 7 1 7 C0.34 5.02 -0.32 3.04 -1 1 C-0.67 0.67 -0.34 0.34 0 0 Z M2 2 C3 4 3 4 3 4 Z " fill="#1A3277" transform="translate(106,422)"/>
<path d="M0 0 C0.80824219 0.10183594 1.61648438 0.20367187 2.44921875 0.30859375 C3.06410156 0.39238281 3.67898438 0.47617187 4.3125 0.5625 C2.3125 2.5625 2.3125 2.5625 0.4375 2.828125 C-0.26375 2.82296875 -0.965 2.8178125 -1.6875 2.8125 C-2.38875 2.81765625 -3.09 2.8228125 -3.8125 2.828125 C-5.6875 2.5625 -5.6875 2.5625 -7.6875 0.5625 C-4.59271121 -0.46909626 -3.16118607 -0.41232862 0 0 Z " fill="#CBE5CD" transform="translate(671.6875,417.4375)"/>
<path d="M0 0 C2.5 2.3125 2.5 2.3125 5 5 C5 5.99 5 6.98 5 8 C4.34 8 3.68 8 3 8 C2.67 7.01 2.34 6.02 2 5 C0.35 5 -1.3 5 -3 5 C-1.125 1.125 -1.125 1.125 0 0 Z " fill="#5D9186" transform="translate(145,399)"/>
<path d="M0 0 C4.62 0 9.24 0 14 0 C9 4 9 4 6 4 C6 3.34 6 2.68 6 2 C3.03 1.505 3.03 1.505 0 1 C0 0.67 0 0.34 0 0 Z " fill="#2C5849" transform="translate(472,394)"/>
<path d="M0 0 C1.63001953 0.01353516 1.63001953 0.01353516 3.29296875 0.02734375 C4.12441406 0.03894531 4.95585937 0.05054688 5.8125 0.0625 C5.8125 0.3925 5.8125 0.7225 5.8125 1.0625 C4.58273437 1.26166016 4.58273437 1.26166016 3.328125 1.46484375 C1.71164062 1.72974609 1.71164062 1.72974609 0.0625 2 C-1.53851563 2.26103516 -1.53851563 2.26103516 -3.171875 2.52734375 C-5.55097593 2.94954171 -7.85665211 3.43452884 -10.1875 4.0625 C-9.8575 3.0725 -9.5275 2.0825 -9.1875 1.0625 C-5.90230525 -0.03256492 -3.45086585 -0.03710608 0 0 Z " fill="#294F52" transform="translate(402.1875,357.9375)"/>
<path d="M0 0 C2.4375 0.75 2.4375 0.75 5 2 C5.8125 4.125 5.8125 4.125 6 6 C4.02 6 2.04 6 0 6 C0 4.02 0 2.04 0 0 Z " fill="#16641B" transform="translate(184,425)"/>
<path d="M0 0 C0.99 0.99 1.98 1.98 3 3 C1.625 5.5 1.625 5.5 0 8 C-0.66 8 -1.32 8 -2 8 C-1.125 1.125 -1.125 1.125 0 0 Z " fill="#8097B2" transform="translate(132,423)"/>
<path d="M0 0 C1.50433594 0.01353516 1.50433594 0.01353516 3.0390625 0.02734375 C3.80992187 0.03894531 4.58078125 0.05054688 5.375 0.0625 C2.53868446 2.43026121 1.5831409 3.04455682 -2.25 3.375 C-5.625 3.0625 -5.625 3.0625 -7.625 1.0625 C-4.98041621 -0.25979189 -2.94738699 -0.03427194 0 0 Z " fill="#DDF0EC" transform="translate(473.625,417.9375)"/>
<path d="M0 0 C3 3 3 3 4 6 C3.0625 8.1875 3.0625 8.1875 2 10 C1.34 10 0.68 10 0 10 C0 6.7 0 3.4 0 0 Z " fill="#569672" transform="translate(154,411)"/>
<path d="M0 0 C0.33 0 0.66 0 1 0 C1.49230769 7.26153846 1.49230769 7.26153846 -1 11 C-1.66 11.66 -2.32 12.32 -3 13 C-2.855625 12.319375 -2.71125 11.63875 -2.5625 10.9375 C-2.13799718 8.72065192 -1.79831018 6.48732633 -1.5 4.25 C-1 1 -1 1 0 0 Z " fill="#1E6524" transform="translate(696,409)"/>
<path d="M0 0 C0 3.41099168 -0.49145406 6.63088314 -1 10 C-1.99 9.34 -2.98 8.68 -4 8 C-4.66 7.67 -5.32 7.34 -6 7 C-4.02 4.69 -2.04 2.38 0 0 Z " fill="#236138" transform="translate(582,375)"/>
<path d="M0 0 C3.36591866 1.44253657 5.51047079 3.33264727 8 6 C7.67 6.66 7.34 7.32 7 8 C3.64379729 6.61122646 1.92701272 5.08322035 0 2 C0 1.34 0 0.68 0 0 Z " fill="#3E6C4F" transform="translate(567,371)"/>
<path d="M0 0 C-0.66 2.31 -1.32 4.62 -2 7 C-2.99 6.67 -3.98 6.34 -5 6 C-6.1875 3.4375 -6.1875 3.4375 -7 1 C-2.25 0 -2.25 0 0 0 Z " fill="#255B4A" transform="translate(477,420)"/>
<path d="M0 0 C0.66 0 1.32 0 2 0 C2.91058531 3.07322544 3.08886184 5.80097361 3 9 C2.34 9 1.68 9 1 9 C0.67 9.66 0.34 10.32 0 11 C0 7.37 0 3.74 0 0 Z " fill="#D3E6DE" transform="translate(508,420)"/>
<path d="M0 0 C0.66 0.66 1.32 1.32 2 2 C0.35 5.3 -1.3 8.6 -3 12 C-3.66 11.01 -4.32 10.02 -5 9 C-3.625 6.5 -3.625 6.5 -2 4 C-1.34 4 -0.68 4 0 4 C0 2.68 0 1.36 0 0 Z " fill="#2C4A5C" transform="translate(349,412)"/>
<path d="M0 0 C0.99 0.33 1.98 0.66 3 1 C1.125 4.875 1.125 4.875 0 6 C-1.66617115 6.04063832 -3.33388095 6.042721 -5 6 C-3.35 4.02 -1.7 2.04 0 0 Z " fill="#E8F8ED" transform="translate(549,384)"/>
<path d="M0 0 C1.32 0.33 2.64 0.66 4 1 C2.76302083 2.46484375 1.52604167 3.9296875 0.2890625 5.39453125 C-0.89201099 6.8655046 -1.95358529 8.43037794 -3 10 C-2.25 3.375 -2.25 3.375 0 0 Z " fill="#286932" transform="translate(658,384)"/>
<path d="M0 0 C-1.12005631 3.36016893 -2.37211797 4.69064913 -5 7 C-5.66 7 -6.32 7 -7 7 C-6.75 4.625 -6.75 4.625 -6 2 C-3.84898936 0.54286376 -2.59713506 0 0 0 Z " fill="#2B534A" transform="translate(460,373)"/>
<path d="M0 0 C0.64453125 1.765625 0.64453125 1.765625 1 4 C0.07421875 5.921875 0.07421875 5.921875 -1.3125 7.75 C-1.98732422 8.67039062 -1.98732422 8.67039062 -2.67578125 9.609375 C-3.11277344 10.06828125 -3.54976562 10.5271875 -4 11 C-4.66 11 -5.32 11 -6 11 C-4.54955729 6.89041233 -2.48889248 3.56741255 0 0 Z " fill="#395762" transform="translate(137,373)"/>
<path d="M0 0 C-2.62647188 1.75098126 -5.28775382 3.38731308 -8 5 C-8.66 3.68 -9.32 2.36 -10 1 C-6.42181037 -1.33958553 -4.07775191 -0.9267618 0 0 Z " fill="#E9F2F6" transform="translate(319,370)"/>
<path d="M0 0 C2.31 0 4.62 0 7 0 C7 1.98 7 3.96 7 6 C6.67 5.34 6.34 4.68 6 4 C3.47266765 3.34444881 3.47266765 3.34444881 1 3 C0.67 2.01 0.34 1.02 0 0 Z " fill="#22553F" transform="translate(501,420)"/>
<path d="M0 0 C0.66 0.66 1.32 1.32 2 2 C1.75033584 6.74361909 0.63709699 7.36290301 -3 11 C-2.01 7.37 -1.02 3.74 0 0 Z " fill="#D0EDD7" transform="translate(699,408)"/>
<path d="M0 0 C1.28132813 0.10183594 2.56265625 0.20367187 3.8828125 0.30859375 C4.87023437 0.39238281 5.85765625 0.47617187 6.875 0.5625 C6.875 0.8925 6.875 1.2225 6.875 1.5625 C-1.045 2.0575 -1.045 2.0575 -9.125 2.5625 C-9.125 1.9025 -9.125 1.2425 -9.125 0.5625 C-6.07230154 -0.96384923 -3.36654311 -0.27544444 0 0 Z " fill="#D3E9E3" transform="translate(478.125,392.4375)"/>
<path d="M0 0 C0.33 0.99 0.66 1.98 1 3 C-0.21484375 4.82421875 -0.21484375 4.82421875 -1.9375 6.6875 C-2.50339844 7.31011719 -3.06929688 7.93273437 -3.65234375 8.57421875 C-4.09707031 9.04472656 -4.54179687 9.51523437 -5 10 C-5.33 9.34 -5.66 8.68 -6 8 C-6.66 7.67 -7.32 7.34 -8 7 C-7.50628906 6.66226562 -7.01257813 6.32453125 -6.50390625 5.9765625 C-5.86324219 5.53054688 -5.22257812 5.08453125 -4.5625 4.625 C-3.92441406 4.18414062 -3.28632813 3.74328125 -2.62890625 3.2890625 C-0.86259072 2.07839147 -0.86259072 2.07839147 0 0 Z " fill="#CBDFDD" transform="translate(437,420)"/>
<path d="M0 0 C0.5534764 2.07553648 1 3.84365964 1 6 C0.401875 6.28875 -0.19625 6.5775 -0.8125 6.875 C-3.19327792 8.04742026 -3.19327792 8.04742026 -6 10 C-4.34832443 6.4213696 -2.21713508 3.25179812 0 0 Z " fill="#5C8793" transform="translate(139,407)"/>
<path d="M0 0 C2.72106694 2.72106694 2.60655572 4.84776311 3.125 8.625 C3.29257812 9.81351562 3.46015625 11.00203125 3.6328125 12.2265625 C3.75398438 13.14179688 3.87515625 14.05703125 4 15 C3.01 15 2.02 15 1 15 C0.67 10.05 0.34 5.1 0 0 Z " fill="#3A5470" transform="translate(306,396)"/>
<path d="M0 0 C-0.25 2.375 -0.25 2.375 -1 5 C-2.9375 6.25 -2.9375 6.25 -5 7 C-5.99 7.495 -5.99 7.495 -7 8 C-4.18918919 0 -4.18918919 0 0 0 Z " fill="#DEEAF1" transform="translate(317,384)"/>
<path d="M0 0 C1.95825873 -0.02694851 3.91662226 -0.04637218 5.875 -0.0625 C6.96554687 -0.07410156 8.05609375 -0.08570313 9.1796875 -0.09765625 C12 0 12 0 14 1 C13.67 1.99 13.34 2.98 13 4 C12.43796875 3.68289063 11.8759375 3.36578125 11.296875 3.0390625 C8.84803683 1.93125475 6.91612145 1.61024601 4.25 1.375 C3.45078125 1.30023438 2.6515625 1.22546875 1.828125 1.1484375 C1.22484375 1.09945313 0.6215625 1.05046875 0 1 C0 0.67 0 0.34 0 0 Z " fill="#558856" transform="translate(666,382)"/>
<path d="M0 0 C1.875 0.125 1.875 0.125 4 1 C5.88698167 5.05701058 6.21117043 8.56542098 6 13 C5.67 13 5.34 13 5 13 C4.80664062 12.39671875 4.61328125 11.7934375 4.4140625 11.171875 C4.15367187 10.37265625 3.89328125 9.5734375 3.625 8.75 C3.36976563 7.96109375 3.11453125 7.1721875 2.8515625 6.359375 C2.04826333 4.13372042 1.10288338 2.09068328 0 0 Z " fill="#E3F8E7" transform="translate(611,374)"/>
<path d="M0 0 C0.515625 0.2475 1.03125 0.495 1.5625 0.75 C-4.8375 4.81153846 -4.8375 4.81153846 -7.875 4.5 C-8.390625 4.2525 -8.90625 4.005 -9.4375 3.75 C-3.0375 -0.31153846 -3.0375 -0.31153846 0 0 Z " fill="#396A48" transform="translate(592.4375,370.25)"/>
<path d="M0 0 C3.625 -0.1875 3.625 -0.1875 7 0 C7 0.99 7 1.98 7 3 C4.03 3 1.06 3 -2 3 C-1.34 2.01 -0.68 1.02 0 0 Z " fill="#EFFEF6" transform="translate(633,440)"/>
<path d="M0 0 C0.99 0.66 1.98 1.32 3 2 C-1.1205746 3.99785435 -4.45194365 4.17835515 -9 4 C-5.96160695 1.97440463 -3.5308582 0.88271455 0 0 Z " fill="#315555" transform="translate(423,427)"/>
<path d="M0 0 C0.33 0 0.66 0 1 0 C1.33 4.95 1.66 9.9 2 15 C1.01 15.33 0.02 15.66 -1 16 C-0.67 10.72 -0.34 5.44 0 0 Z " fill="#E6F9F7" transform="translate(439,404)"/>
<path d="M0 0 C0.144375 0.598125 0.28875 1.19625 0.4375 1.8125 C0.8872439 3.56150404 1.42892341 5.28677023 2 7 C0.02 7.33 -1.96 7.66 -4 8 C-2.87548273 5.0280615 -1.77706209 2.66559313 0 0 Z " fill="#364D70" transform="translate(118,402)"/>
<path d="M0 0 C2.99324263 1.0975223 3.84610901 1.67682892 5.25 4.625 C5.4975 5.40875 5.745 6.1925 6 7 C5.01 7.495 5.01 7.495 4 8 C3.566875 7.0409375 3.566875 7.0409375 3.125 6.0625 C2.17176549 3.84793921 2.17176549 3.84793921 0 3 C0 2.01 0 1.02 0 0 Z " fill="#D8F2DA" transform="translate(677,385)"/>
<path d="M0 0 C0.66 0 1.32 0 2 0 C3.38232443 1.62626404 4.71937515 3.2925002 6 5 C5.34 5.66 4.68 6.32 4 7 C2.35 5.68 0.7 4.36 -1 3 C-0.67 2.01 -0.34 1.02 0 0 Z " fill="#D9F1DB" transform="translate(689,372)"/>
<path d="M0 0 C0.33 0.66 0.66 1.32 1 2 C-1.45454545 7.72727273 -1.45454545 7.72727273 -4 9 C-4 8.34 -4 7.68 -4 7 C-4.66 6.67 -5.32 6.34 -6 6 C-4 4 -2 2 0 0 Z " fill="#366656" transform="translate(483,413)"/>
<path d="M0 0 C2.31 0.66 4.62 1.32 7 2 C7 2.66 7 3.32 7 4 C4.69 4 2.38 4 0 4 C0 2.68 0 1.36 0 0 Z " fill="#D8EAE4" transform="translate(501,416)"/>
<path d="M0 0 C0.33 2.64 0.66 5.28 1 8 C-1.475 7.01 -1.475 7.01 -4 6 C-4 4.35 -4 2.7 -4 1 C-1 0 -1 0 0 0 Z " fill="#285B4E" transform="translate(463,410)"/>
<path d="M0 0 C0.66 0 1.32 0 2 0 C2 0.66 2 1.32 2 2 C0.04072937 3.7143618 -1.95880212 5.38405168 -4 7 C-4.66 6.67 -5.32 6.34 -6 6 C-4 4 -2 2 0 0 Z " fill="#CCE5D5" transform="translate(587,384)"/>
<path d="M0 0 C1.67542976 0.28604898 3.34385343 0.61781233 5 1 C5 1.99 5 2.98 5 4 C1.7 3.67 -1.6 3.34 -5 3 C-3.68 2.34 -2.36 1.68 -1 1 C-0.67 0.67 -0.34 0.34 0 0 Z " fill="#226434" transform="translate(595,380)"/>
<path d="M0 0 C0 0.99 0 1.98 0 3 C-1.32 3 -2.64 3 -4 3 C-4 2.34 -4 1.68 -4 1 C-5.32 0.34 -6.64 -0.32 -8 -1 C-3.375 -2.25 -3.375 -2.25 0 0 Z " fill="#0C640C" transform="translate(680,375)"/>
<path d="M0 0 C0.99 0.33 1.98 0.66 3 1 C3 1.99 3 2.98 3 4 C2.01 4.33 1.02 4.66 0 5 C0 4.34 0 3.68 0 3 C-1.65 3.33 -3.3 3.66 -5 4 C-3.36587557 2.29159719 -2.13093906 1.06546953 0 0 Z " fill="#296342" transform="translate(551,371)"/>
<path d="M0 0 C0.66 0.33 1.32 0.66 2 1 C-0.80804268 3.96404505 -3.18315774 6.44499019 -7 8 C-5.50902342 4.2047869 -3.24299151 2.38957269 0 0 Z " fill="#D8E7E9" transform="translate(390,363)"/>
<path d="M0 0 C0.66 0.99 1.32 1.98 2 3 C-1.22791555 5.1519437 -2.28400809 5.20086443 -6 5 C-5.195625 4.360625 -4.39125 3.72125 -3.5625 3.0625 C-1.7249496 1.59396498 -1.7249496 1.59396498 0 0 Z " fill="#296E32" transform="translate(680,415)"/>
<path d="M0 0 C0.99 0.33 1.98 0.66 3 1 C3 1.66 3 2.32 3 3 C3.99 3.33 4.98 3.66 6 4 C6 5.65 6 7.3 6 9 C3.59927045 6.11912454 1.52708963 3.43595166 0 0 Z " fill="#E1F7E6" transform="translate(181,415)"/>
<path d="M0 0 C1.32 0.99 2.64 1.98 4 3 C3.67 4.32 3.34 5.64 3 7 C2.01 6.67 1.02 6.34 0 6 C0 4.02 0 2.04 0 0 Z " fill="#31417A" transform="translate(228,413)"/>
<path d="M0 0 C1.0625 1.8125 1.0625 1.8125 2 4 C1.67 4.99 1.34 5.98 1 7 C-0.32 5.35 -1.64 3.7 -3 2 C-2.01 1.34 -1.02 0.68 0 0 Z " fill="#E5F2DF" transform="translate(661,411)"/>
<path d="M0 0 C1.32 0 2.64 0 4 0 C3.34 2.31 2.68 4.62 2 7 C1.34 7 0.68 7 0 7 C0 4.69 0 2.38 0 0 Z " fill="#2D4666" transform="translate(307,388)"/>
<path d="M0 0 C1.32 0.33 2.64 0.66 4 1 C4.33 2.98 4.66 4.96 5 7 C4.01 7.495 4.01 7.495 3 8 C0 3.375 0 3.375 0 0 Z " fill="#E6F2F6" transform="translate(346,376)"/>
<path d="M0 0 C3.375 0.3125 3.375 0.3125 7 1 C7.66 1.99 8.32 2.98 9 4 C7.68528432 3.71848913 6.37324233 3.42446661 5.0625 3.125 C3.96615234 2.88136719 3.96615234 2.88136719 2.84765625 2.6328125 C1 2 1 2 0 0 Z " fill="#36477C" transform="translate(221,428)"/>
<path d="M0 0 C0.99 0 1.98 0 3 0 C3.33 2.64 3.66 5.28 4 8 C3.34 7.67 2.68 7.34 2 7 C1.26924352 4.6859378 0.59861742 2.35171131 0 0 Z " fill="#344279" transform="translate(215,418)"/>
<path d="M0 0 C0 1.98 0 3.96 0 6 C-1.32 6.33 -2.64 6.66 -4 7 C-4.33 6.01 -4.66 5.02 -5 4 C-1.125 0 -1.125 0 0 0 Z " fill="#30457A" transform="translate(251,412)"/>
<path d="M0 0 C-2 2 -2 2 -3.9453125 2.1953125 C-5.96354167 2.13020833 -7.98177083 2.06510417 -10 2 C-3.72972973 -1.24324324 -3.72972973 -1.24324324 0 0 Z " fill="#D9E2F4" transform="translate(244,417)"/>
<path d="M0 0 C1.9375 0.75 1.9375 0.75 4 2 C4.75 4.125 4.75 4.125 5 6 C3.35 6 1.7 6 0 6 C0 4.02 0 2.04 0 0 Z " fill="#1D5E2A" transform="translate(176,411)"/>
<path d="M0 0 C1 4 1 4 -0.4375 6.75 C-1.2109375 7.86375 -1.2109375 7.86375 -2 9 C-2.66 8.67 -3.32 8.34 -4 8 C-2.68 5.36 -1.36 2.72 0 0 Z " fill="#354676" transform="translate(255,403)"/>
<path d="M0 0 C1.65 1.65 3.3 3.3 5 5 C4.67 5.66 4.34 6.32 4 7 C2.35 6.01 0.7 5.02 -1 4 C-0.67 2.68 -0.34 1.36 0 0 Z " fill="#33634C" transform="translate(162,387)"/>
<path d="M0 0 C2.76223278 2.76223278 2.57856291 5.20706617 3 9 C2.01 8.34 1.02 7.68 0 7 C-0.1875 3.375 -0.1875 3.375 0 0 Z " fill="#39723D" transform="translate(696,384)"/>
<path d="M0 0 C1.5 1.125 1.5 1.125 3 3 C3.1875 6.1875 3.1875 6.1875 3 9 C2.34 9 1.68 9 1 9 C0 2.25 0 2.25 0 0 Z " fill="#D1ECD8" transform="translate(598,384)"/>
<path d="M0 0 C0.66 0.33 1.32 0.66 2 1 C1.01 1.66 0.02 2.32 -1 3 C-0.67 2.01 -0.34 1.02 0 0 Z M-3 3 C-2.34 3.33 -1.68 3.66 -1 4 C-2.28965176 5.37562854 -3.62689293 6.70766393 -5 8 C-5.66 8 -6.32 8 -7 8 C-6 5 -6 5 -3 3 Z " fill="#EDF9F0" transform="translate(587,386)"/>
</svg>
